<?xml version="1.0" encoding="utf-8"?>
<!-- Generator: Adobe Illustrator 26.3.1, SVG Export Plug-In . SVG Version: 6.00 Build 0)  -->
<svg version="1.1" id="Layer_1" xmlns="http://www.w3.org/2000/svg" xmlns:xlink="http://www.w3.org/1999/xlink" x="0px" y="0px"
	 viewBox="0 0 1108.7 611.4" style="enable-background:new 0 0 1108.7 611.4;" xml:space="preserve">
<style type="text/css">
	.st0{fill:#F1C40F;}
	.st1{fill:#FFFFFF;}
	.st2{fill:#231F20;}
	.st3{font-family:'OpenSans';}
	.st4{font-size:42.0915px;}
	.st5{fill:none;stroke:#231F20;stroke-width:2;stroke-miterlimit:10;}
	.st6{font-size:24px;}
	.st7{fill:#E64D3B;}
	.st8{font-family:'LucidaHandwriting-Italic';}
	.st9{font-size:41px;}
	.st10{fill:#FFFFFF;stroke:#231F20;stroke-width:2;stroke-miterlimit:10;}
	.st11{fill:#2B5188;}
	.st12{font-size:36px;}
	.st13{fill:none;stroke:#231F20;stroke-width:5;stroke-miterlimit:10;}
</style>
<g id="votingSlip">
	<g>
		<g>
			<path class="st0" d="M488.7,166c0,51.8,0,363,0,414.8c0,9-1.3,10.4-10.4,10.4c-89.2,0-358,0-447.2,0c-8.9,0-10.7-1.7-10.7-10.8
				c0-77.6,0-414.5,0-492.1c0-4,0.7-7.4,3.7-10.4C47.3,53.7,70.5,29.5,93.6,5.1c3.5-3.7,7.2-5.1,12.3-5.1
				C170.2,0.1,414,0.1,478.3,0.1c9,0,10.4,1.3,10.4,10.4C488.7,62.3,488.7,114.2,488.7,166z"/>
		</g>
	</g>
	<g>
		<polygon class="st1" points="3.7,96.6 85.7,18.5 463,25.3 459.2,611.3 0,600.5 		"/>
		<g>
			<path d="M469.6,185c0,52,0,364,0,416c0,9.1-1.3,10.4-10.4,10.4c-89.5,0-358.9,0-448.4,0c-9,0-10.7-1.7-10.7-10.9
				c0-77.8,0-415.6,0-493.4c0-4,0.7-7.4,3.7-10.4C27,72.4,50.3,48.1,73.5,23.7c3.5-3.7,7.2-5.1,12.3-5.1c64.5,0.1,309,0.1,373.4,0.1
				c9.1,0,10.4,1.3,10.4,10.4C469.6,81,469.6,133,469.6,185z M456.9,185.2c0-49.3-0.1-98.7,0.1-148c0-4.6-1.3-6-5.9-6
				c-59.3,0.1-298.7,0.1-358,0c-4.5,0-5.6,1.5-5.6,5.8c0.2,21,0.1,42,0.1,63c0,7.7-1.7,9.3-9.5,9.3c-19.3,0-38.7,0-58,0
				c-6.8,0-6.8,0-6.8,7c0,71.8,0,403.7,0,475.5c0,6.9,0,6.9,7,6.9c83.3,0,346.6,0,430,0c6.7,0,6.7,0,6.7-7
				C456.9,542.8,456.9,234,456.9,185.2z M21.7,96.6c17.5,0,33.8,0,50,0c3.2,0,3.3-2.1,3.2-4.4c0-11.6,0-23.3,0-34.9
				c0-4.9,0-9.8,0-16.4C56.8,59.9,39.7,77.7,21.7,96.6z"/>
		</g>
		<text transform="matrix(1 0 0 1 63.2483 259.022)" class="st2 st3 st4">Candidate 1</text>
		<rect x="361.5" y="225.5" class="st5" width="35" height="35"/>
		<text transform="matrix(1 0 0 1 63.2483 369.022)" class="st2 st3 st4">Candidate 2</text>
		<rect x="361.5" y="335.5" class="st5" width="35" height="35"/>
		<text transform="matrix(1 0 0 1 63.2483 489.022)" class="st2 st3 st4">Candidate 3</text>
		<rect x="361.5" y="455.5" class="st5" width="35" height="35"/>
		<text transform="matrix(1 0 0 1 317.709 138.3214)"><tspan x="0" y="0" class="st2 st3 st6">Order of </tspan><tspan x="-11.1" y="22" class="st2 st3 st6">preferance</tspan></text>
	</g>
	<text transform="matrix(1 0 0 1 363.2065 369.022)" class="st7 st8 st9">1</text>
	<text transform="matrix(1 0 0 1 365.1584 259.022)" class="st7 st8 st9">2</text>
	<text transform="matrix(1 0 0 1 365.1584 489.022)" class="st7 st8 st9">3</text>
</g>
<g id="ballotBox">
	<polygon class="st0" points="810.2,291.3 1060.3,291.3 1108.7,337.6 1108.7,368.6 1092.2,368.6 1092.2,534.8 1082.8,555 
		809.3,555.5 789.5,305.8 	"/>
	<g>
		<g>
			<g>
				<g>
					<rect x="771" y="364" class="st10" width="304.6" height="196.5"/>
					<rect x="754.8" y="341.6" class="st10" width="337.1" height="24.6"/>
					<polygon class="st10" points="1057.2,306.1 789.5,306.1 754.8,341.6 1091.9,341.6 					"/>
					<polygon class="st11" points="967.2,321.7 957.1,321.7 889.6,321.7 879.5,321.7 874.6,327.4 889.6,327.4 957.1,327.4 
						972.1,327.4 					"/>
				</g>
			</g>
		</g>
	</g>
	<text transform="matrix(1 0 0 1 857.6385 447.2354)"><tspan x="0" y="0" class="st2 st3 st12">Ballot</tspan><tspan x="29.7" y="40" class="st2 st3 st12">BOX</tspan></text>
</g>
<g id="arrow">
	<path class="st13" d="M560.2,149.5c0,0,210.6-162.8,338.8,63.4"/>
	<polyline class="st13" points="879.2,220.7 908.4,224.2 911.8,195.9 	"/>
</g>
</svg>
