<?xml version="1.0" encoding="utf-8"?>
<!-- Generator: Adobe Illustrator 26.3.1, SVG Export Plug-In . SVG Version: 6.00 Build 0)  -->
<svg version="1.1" id="Layer_1" xmlns="http://www.w3.org/2000/svg" xmlns:xlink="http://www.w3.org/1999/xlink" x="0px" y="0px"
	 viewBox="0 0 414 600" style="enable-background:new 0 0 414 600;" xml:space="preserve">
<style type="text/css">
	.st0{fill:none;stroke:#231F20;stroke-miterlimit:10;}
	.st1{fill:none;stroke:#231F20;stroke-miterlimit:10;stroke-dasharray:11.9424,11.9424;}
	.st2{enable-background:new    ;}
	.st3{fill:#231F20;}
	.st4{fill:#EF8124;}
	.st5{fill:#FFDA6A;}
	.st6{fill:#E04C26;}
	.st7{fill:#F1C40F;}
</style>
<g id="cuttoff-50">
	<g>
		<g>
			<line class="st0" x1="230.2" y1="14.1" x2="230.2" y2="17.2"/>
			<line class="st1" x1="230.2" y1="23.2" x2="230.2" y2="592.4"/>
			<line class="st0" x1="230.2" y1="595.3" x2="230.2" y2="588.4"/>
		</g>
	</g>
	<g class="st2">
		<path class="st3" d="M248.6,22.4c0.9,0,1.6,0.1,2.2,0.4c0.6,0.3,1.1,0.7,1.5,1.3c0.3,0.6,0.5,1.2,0.5,2c0,0.9-0.2,1.6-0.6,2.2
			c-0.4,0.6-0.9,1.1-1.6,1.4s-1.5,0.5-2.5,0.5c-0.7,0-1.3-0.1-1.8-0.2c-0.6-0.1-1-0.3-1.4-0.5v-1.4c0.4,0.3,0.9,0.5,1.5,0.6
			c0.6,0.1,1.2,0.2,1.7,0.2c0.6,0,1.2-0.1,1.7-0.3c0.5-0.2,0.9-0.5,1.1-0.9c0.3-0.4,0.4-0.9,0.4-1.6c0-0.8-0.3-1.5-0.8-1.9
			s-1.3-0.7-2.4-0.7c-0.4,0-0.8,0-1.2,0.1c-0.4,0.1-0.8,0.1-1.1,0.2l-0.7-0.5l0.5-5.9h6.3v1.3h-5.1l-0.3,3.8c0.2,0,0.5-0.1,0.8-0.1
			S248.2,22.4,248.6,22.4z"/>
		<path class="st3" d="M263.1,23.8c0,1-0.1,1.9-0.2,2.8c-0.2,0.8-0.4,1.5-0.7,2c-0.3,0.6-0.8,1-1.3,1.3s-1.2,0.4-1.9,0.4
			c-0.9,0-1.7-0.3-2.3-0.8c-0.6-0.5-1.1-1.3-1.4-2.2c-0.3-1-0.5-2.1-0.5-3.5c0-1.3,0.1-2.5,0.4-3.5c0.3-1,0.7-1.7,1.3-2.2
			c0.6-0.5,1.4-0.8,2.4-0.8c1,0,1.7,0.3,2.4,0.8c0.6,0.5,1.1,1.3,1.4,2.2C263,21.3,263.1,22.5,263.1,23.8z M256.2,23.8
			c0,1.2,0.1,2.2,0.3,2.9c0.2,0.8,0.5,1.4,0.9,1.8c0.4,0.4,0.9,0.6,1.6,0.6s1.2-0.2,1.6-0.6c0.4-0.4,0.7-1,0.9-1.8
			c0.2-0.8,0.3-1.8,0.3-2.9c0-1.2-0.1-2.1-0.3-2.9c-0.2-0.8-0.5-1.4-0.9-1.8c-0.4-0.4-0.9-0.6-1.6-0.6s-1.2,0.2-1.6,0.6
			c-0.4,0.4-0.7,1-0.9,1.8S256.2,22.7,256.2,23.8z"/>
		<path class="st3" d="M267.5,17.3c0.9,0,1.5,0.3,2,1c0.4,0.7,0.7,1.7,0.7,2.9s-0.2,2.2-0.6,2.9c-0.4,0.7-1.1,1-2,1
			c-0.8,0-1.5-0.3-1.9-1c-0.4-0.7-0.7-1.7-0.7-2.9s0.2-2.2,0.6-2.9C265.9,17.7,266.6,17.3,267.5,17.3z M267.5,18.4
			c-0.5,0-0.8,0.2-1,0.7c-0.2,0.5-0.3,1.2-0.3,2.2c0,1,0.1,1.7,0.3,2.2c0.2,0.5,0.6,0.7,1,0.7c0.5,0,0.8-0.2,1.1-0.7
			c0.2-0.5,0.4-1.2,0.4-2.2c0-1-0.1-1.7-0.4-2.2C268.3,18.6,267.9,18.4,267.5,18.4z M275.5,17.5l-7,12.6h-1.3l7-12.6H275.5z
			 M275.1,22.4c0.9,0,1.5,0.3,2,1c0.5,0.7,0.7,1.7,0.7,2.9c0,1.3-0.2,2.2-0.6,2.9s-1.1,1.1-2,1.1c-0.8,0-1.5-0.4-1.9-1.1
			c-0.4-0.7-0.7-1.7-0.7-2.9c0-1.3,0.2-2.2,0.6-2.9S274.2,22.4,275.1,22.4z M275.1,23.4c-0.5,0-0.8,0.2-1,0.7s-0.3,1.2-0.3,2.2
			c0,1,0.1,1.7,0.3,2.2c0.2,0.5,0.6,0.7,1,0.7c0.5,0,0.8-0.2,1.1-0.7c0.2-0.5,0.4-1.2,0.4-2.2c0-1-0.1-1.7-0.3-2.2
			C276,23.7,275.6,23.4,275.1,23.4z"/>
	</g>
	<g class="st2">
		<path class="st3" d="M250.9,38.9c-0.7,0-1.3,0.1-1.9,0.4s-1,0.6-1.4,1c-0.4,0.5-0.7,1-0.9,1.6c-0.2,0.6-0.3,1.4-0.3,2.2
			c0,1.1,0.2,2,0.5,2.8c0.3,0.8,0.8,1.4,1.5,1.8s1.5,0.6,2.5,0.6c0.6,0,1.1,0,1.6-0.1c0.5-0.1,1-0.2,1.5-0.4v1.3
			c-0.5,0.2-0.9,0.3-1.5,0.4c-0.5,0.1-1.1,0.1-1.8,0.1c-1.3,0-2.4-0.3-3.2-0.8c-0.9-0.5-1.5-1.3-1.9-2.3c-0.4-1-0.6-2.1-0.6-3.5
			c0-1,0.1-1.8,0.4-2.6c0.3-0.8,0.7-1.5,1.2-2.1s1.1-1,1.9-1.3c0.8-0.3,1.6-0.5,2.6-0.5c0.6,0,1.3,0.1,1.8,0.2s1.1,0.3,1.6,0.5
			l-0.6,1.2c-0.4-0.2-0.8-0.3-1.3-0.5C252,38.9,251.4,38.9,250.9,38.9z"/>
		<path class="st3" d="M266.2,37.8v8.2c0,0.9-0.2,1.7-0.5,2.4s-0.9,1.2-1.6,1.6s-1.6,0.6-2.7,0.6c-1.6,0-2.8-0.4-3.6-1.3
			c-0.8-0.8-1.2-2-1.2-3.4v-8.1h1.5v8.2c0,1.1,0.3,1.9,0.9,2.5c0.6,0.6,1.4,0.9,2.5,0.9c0.8,0,1.4-0.1,1.9-0.4s0.9-0.7,1.1-1.2
			c0.2-0.5,0.4-1.1,0.4-1.8v-8.2H266.2z"/>
		<path class="st3" d="M273.4,50.4H272V39.1h-4v-1.3h9.4v1.3h-4V50.4z"/>
		<path class="st3" d="M278.3,46.3V45h4.3v1.3H278.3z"/>
		<path class="st3" d="M296,44.1c0,1-0.1,1.9-0.4,2.7c-0.2,0.8-0.6,1.5-1.1,2.1c-0.5,0.6-1.1,1-1.8,1.3c-0.7,0.3-1.6,0.5-2.5,0.5
			c-1,0-1.8-0.2-2.6-0.5c-0.7-0.3-1.3-0.8-1.8-1.3c-0.5-0.6-0.8-1.3-1.1-2.1c-0.2-0.8-0.4-1.7-0.4-2.7c0-1.3,0.2-2.4,0.6-3.4
			c0.4-1,1.1-1.7,1.9-2.3c0.9-0.5,2-0.8,3.3-0.8c1.3,0,2.3,0.3,3.2,0.8c0.9,0.5,1.5,1.3,1.9,2.3C295.7,41.6,296,42.7,296,44.1z
			 M285.9,44.1c0,1.1,0.2,2,0.5,2.8s0.8,1.4,1.4,1.8c0.6,0.4,1.4,0.6,2.4,0.6c1,0,1.8-0.2,2.4-0.6c0.6-0.4,1.1-1,1.4-1.8
			s0.4-1.7,0.4-2.8c0-1.6-0.3-2.9-1-3.8c-0.7-0.9-1.7-1.4-3.2-1.4c-1,0-1.8,0.2-2.4,0.6s-1.1,1-1.4,1.8
			C286.1,42.1,285.9,43,285.9,44.1z"/>
		<path class="st3" d="M300.2,50.4h-1.5V37.8h7v1.3h-5.6v4.6h5.2V45h-5.2V50.4z"/>
		<path class="st3" d="M309.4,50.4h-1.5V37.8h7v1.3h-5.6v4.6h5.2V45h-5.2V50.4z"/>
	</g>
</g>
<g id="cand1-group">
	<g id="Bar1">
		<rect x="69.5" y="170.9" class="st4" width="164.8" height="20"/>
		<rect x="234" y="170.9" class="st5" width="67.8" height="20"/>
		<rect x="301.2" y="170.9" class="st6" width="47.4" height="20"/>
	</g>
	<g id="cand1_00000011711539426293931580000002088214723144697476_">
		<path class="st7" d="M109.6,12.2c0,0,0.7-0.7,1.9-1c1.2-0.3,2.8-1.2,4.4-1.3c1.7-0.1-0.3-0.2,2.3,0.7c2.6,0.9,1.9-0.8,2.9-0.8
			s3.7-0.3,4.6,0.3s0.5,0.3,2.3,1.4c1.8,1.1,2.3,1.3,2.6,1.3s3.6,3.3,4,3.7c0.4,0.3,1,1,1.1,2.2c0.1,1.1,1.3,4.7,1.3,5.7
			s0.8,2.9,0.4,3.6c-0.3,0.7,2.1,1.2,2.2,2.4c0.1,1.2,0.5,2.7,0.1,3.9s-0.7,2.8-0.7,3.5s-0.2,1.4,0,2.2s0.6,1.8,0.3,2.3
			c-0.3,0.6-1.6,1.4-2.2,1c-0.6-0.3-0.1,4.9-0.3,5.7s0.6,0,1.5,0.9s2.3,2.9,2.4,4.9c0.2,2,1.9,4,2.2,4s0.5,1.6,0.5,1.6
			s-0.2-0.3,1.8,0.1c2,0.4,5.5,2.3,7.1,2.7s1.9,0,3.1,1s2.3,0.3,3.2,0.6c1,0.3,1.2,0.3,1.2,0.3l0.5,0.6c0,0,1.8,0.2,3.2,0.2
			s3.6,1.6,5.2,2c1.6,0.4,1.9,1.4,3.4,2s3.2,5.2,4.4,6.1s1.5,2.7,1.5,3.3c0,0.6-0.4,1.4-0.4,1.4s0.7,4.2,1,6.3c0.3,2.1,1,3.6,1,5.2
			c0.2,4.1,0.2,5.3,0.6,10.2c0.2,2,0.3-0.4,0.3,0.1c0,0.4-0.4,11.7-0.5,12.5s-0.5,6.4-1,7.3s-1.3,3.9-1.3,3.9s-2,5.1-2.5,5.8
			s-2.1,3.7-2.2,4c-0.1,0.3-0.2,1.3-1.5,1.6s-1.9,0.8-3.8,0.4s-3.2-1.4-3.2-1.4l-1,0.8c0,0-0.2,17.4,0,18.1
			c0.2,0.7,0.8,15.4,0.8,16.2s-80.5,0.2-80.5,0.2s0.9-13,1.2-14.4c0.3-1.4,0.1-12.7,0.8-13.6c0.7-0.9,0.5-2.9,0.5-2.9
			s-1.9-0.5-2.3-0.6c-0.3-0.1-2.5,0.1-2.8,0.1s-1.4,0.2-1.9-0.8s-1-1.6-1.7-2.3c-0.6-0.8-3.1-2.5-3.1-4.4c-0.1-1.8-0.5-3.4-0.5-3.4
			s-0.7-2.5-0.8-3.5c-0.1-1-0.4-5.9-0.8-7.1c-0.3-1.2,0.1-20.3,0.5-22.7C74,93.9,75,91.7,75,91s-0.4-2.5,0.3-4
			c0.7-1.5,1.4-3,1.5-4.2c0,0,0.7-2.7,1.5-3.9c0.8-1.1,0.8-1.5,1.3-2s1.1-1,1.6-2.3c0.4-1.3,0.5-1.6,1-1.8c0.4-0.3,2-0.8,3-1.6
			c1-0.8,2.3-3,3.9-2.6c1.7,0.3,3.2-0.5,3.2-0.5s1.8-0.1,2.1-0.2c0.3-0.1,1.8-1.3,2.7-1.7c0.9-0.3,2.7,0,3.1-0.2
			c0.3-0.2,1.3-1.3,2.9-2.2c1.6-0.9,3.3-1.6,3.3-1.6s1.5-4.7,1.8-5.5s0.3-0.8,0.3-0.8s-2.5-4.4-2.5-5.3c0-0.9-0.3-1.8-0.3-1.8
			s-2.1-0.1-2.4-2.3c-0.3-2.3-1.9-4.1-2.1-4.5s-1-0.9-0.9-2.7c0.2-1.8-0.2-3.5,0-4s-0.2-3.2-1-7.2c-0.8-3.9,1.7-7,2.2-7.9
			s1.1-2,1.4-2.4s3.9-4,4.2-4.4C107.4,12.9,109.6,12.2,109.6,12.2z"/>
		
			<image style="overflow:visible;enable-background:new    ;" width="343" height="510" xlink:href="cand-selection.png"  transform="matrix(0.3134 0 0 0.3134 69.4708 12.0866)">
		</image>
	</g>
</g>
<g id="cand3-group">
	<g id="Bar3">
		<rect x="69.5" y="566.9" class="st4" width="94.6" height="20"/>
		<rect x="163.9" y="566.9" class="st5" width="38.9" height="20"/>
		<rect x="202.4" y="566.9" class="st6" width="27.2" height="20"/>
	</g>
	<g id="candidate3">
		<path class="st7" d="M109.6,408.2c0,0,0.7-0.7,1.9-1c1.2-0.3,2.8-1.2,4.4-1.3c1.7-0.1-0.3-0.2,2.3,0.7c2.6,0.9,1.9-0.8,2.9-0.8
			s3.7-0.3,4.6,0.3c1,0.6,0.5,0.3,2.3,1.4c1.8,1.1,2.3,1.3,2.6,1.3s3.6,3.3,4,3.7c0.4,0.3,1,1,1.1,2.2c0.1,1.1,1.3,4.7,1.3,5.7
			s0.8,2.9,0.4,3.6s2.1,1.2,2.2,2.4c0.1,1.2,0.5,2.7,0.1,3.9s-0.7,2.8-0.7,3.5s-0.2,1.4,0,2.2c0.2,0.8,0.6,1.8,0.3,2.3
			c-0.3,0.6-1.6,1.4-2.2,1c-0.6-0.3-0.1,4.9-0.3,5.7c-0.2,0.8,0.6,0,1.5,0.9s2.3,2.9,2.4,4.9c0.2,2,1.9,4,2.2,4s0.5,1.6,0.5,1.6
			s-0.2-0.3,1.8,0.1s5.5,2.3,7.1,2.7c1.6,0.4,1.9,0,3.1,1c1.2,1,2.3,0.3,3.2,0.6c1,0.3,1.2,0.3,1.2,0.3l0.5,0.6c0,0,1.8,0.2,3.2,0.2
			s3.6,1.6,5.2,2c1.6,0.4,1.9,1.4,3.4,2s3.2,5.2,4.4,6.1s1.5,2.7,1.5,3.3c0,0.6-0.4,1.4-0.4,1.4s0.7,4.2,1,6.3c0.3,2.1,1,3.6,1,5.2
			c0.2,4.1,0.2,5.3,0.6,10.2c0.2,2,0.3-0.4,0.3,0.1s-0.4,11.7-0.5,12.5s-0.5,6.4-1,7.3s-1.3,3.9-1.3,3.9s-2,5.1-2.5,5.8
			s-2.1,3.7-2.2,4s-0.2,1.3-1.5,1.6s-1.9,0.8-3.8,0.4s-3.2-1.4-3.2-1.4l-1,0.8c0,0-0.2,17.4,0,18.1c0.2,0.7,0.8,15.4,0.8,16.2
			s-80.5,0.2-80.5,0.2s0.9-13,1.2-14.4c0.3-1.4,0.1-12.7,0.8-13.6c0.7-0.9,0.5-2.9,0.5-2.9s-1.9-0.5-2.3-0.6
			c-0.3-0.1-2.5,0.1-2.8,0.1s-1.4,0.2-1.9-0.8s-1-1.6-1.7-2.3c-0.6-0.8-3.1-2.5-3.1-4.4c-0.1-1.8-0.5-3.4-0.5-3.4s-0.7-2.5-0.8-3.5
			c-0.1-1-0.4-5.9-0.8-7.1c-0.3-1.2,0.1-20.3,0.5-22.7c0.4-2.3,1.4-4.5,1.4-5.2s-0.4-2.5,0.3-4c0.7-1.5,1.4-3,1.5-4.2
			c0,0,0.7-2.7,1.5-3.9c0.8-1.1,0.8-1.5,1.3-2s1.1-1,1.6-2.3c0.4-1.3,0.5-1.6,1-1.8c0.4-0.3,2-0.8,3-1.6s2.3-3,3.9-2.6
			c1.7,0.3,3.2-0.5,3.2-0.5s1.8-0.1,2.1-0.2c0.3-0.1,1.8-1.3,2.7-1.7c0.9-0.3,2.7,0,3.1-0.2c0.3-0.2,1.3-1.3,2.9-2.2
			c1.6-0.9,3.3-1.6,3.3-1.6s1.5-4.7,1.8-5.5s0.3-0.8,0.3-0.8s-2.5-4.4-2.5-5.3s-0.3-1.8-0.3-1.8s-2.1-0.1-2.4-2.3
			c-0.3-2.3-1.9-4.1-2.1-4.5s-1-0.9-0.9-2.7c0.2-1.8-0.2-3.5,0-4s-0.2-3.2-1-7.2c-0.8-3.9,1.7-7,2.2-7.9s1.1-2,1.4-2.4
			s3.9-4,4.2-4.4C107.4,408.9,109.6,408.2,109.6,408.2z"/>
		
			<image style="overflow:visible;enable-background:new    ;" width="343" height="510" xlink:href="cand-selection.png"  transform="matrix(0.3134 0 0 0.3134 69.4708 408.1154)">
		</image>
	</g>
	<g id="eliminated3">
		<path class="st7" d="M342.5,514.9H220.1c-12.2,0-22.1-9.9-22.1-22.1l0,0c0-12.2,9.9-22.1,22.1-22.1h122.4
			c12.2,0,22.1,9.9,22.1,22.1l0,0C364.6,505,354.7,514.9,342.5,514.9z"/>
		<g class="st2">
			<path class="st3" d="M237.8,499.6h-7.4v-12.5h7.4v1.7h-5.3v3.4h4.9v1.7h-4.9v3.9h5.3V499.6z"/>
			<path class="st3" d="M240.6,499.6v-12.5h2.1v10.8h5.6v1.7H240.6z"/>
			<path class="st3" d="M250.5,499.6v-12.5h2.1v12.5H250.5z"/>
			<path class="st3" d="M261.8,499.6l-3.8-10.5h-0.1c0,0.2,0,0.6,0.1,1c0,0.4,0,0.8,0.1,1.3c0,0.5,0,0.9,0,1.3v6.9h-1.9v-12.5h3
				l3.6,10h0.1l3.7-10h3v12.5h-2v-7c0-0.4,0-0.8,0-1.2c0-0.4,0-0.9,0.1-1.3c0-0.4,0-0.7,0-1h-0.1l-3.9,10.4H261.8z"/>
			<path class="st3" d="M273,499.6v-12.5h2.1v12.5H273z"/>
			<path class="st3" d="M289.5,499.6h-2.6l-6.4-10h-0.1c0,0.3,0,0.7,0.1,1.1s0,0.8,0.1,1.2c0,0.4,0,0.8,0,1.2v6.5h-1.9v-12.5h2.6
				l6.4,9.9h0.1c0-0.3,0-0.6,0-1s0-0.8,0-1.2c0-0.4,0-0.8,0-1.2v-6.6h2V499.6z"/>
			<path class="st3" d="M301,499.6l-1.3-3.5h-5l-1.3,3.5h-2.3l4.9-12.6h2.4l4.9,12.6H301z M299.2,494.4l-1.2-3.4
				c0-0.1-0.1-0.4-0.2-0.6s-0.2-0.5-0.3-0.8c-0.1-0.3-0.2-0.5-0.2-0.7c-0.1,0.2-0.1,0.5-0.2,0.8c-0.1,0.3-0.2,0.6-0.2,0.8
				c-0.1,0.3-0.1,0.4-0.2,0.6l-1.3,3.4H299.2z"/>
			<path class="st3" d="M309.6,499.6h-2.2v-10.8h-3.8v-1.7h9.8v1.7h-3.8V499.6z"/>
			<path class="st3" d="M322.8,499.6h-7.4v-12.5h7.4v1.7h-5.3v3.4h4.9v1.7h-4.9v3.9h5.3V499.6z"/>
			<path class="st3" d="M336.2,493.2c0,1.4-0.3,2.6-0.8,3.5s-1.3,1.7-2.4,2.1c-1,0.5-2.3,0.7-3.8,0.7h-3.6v-12.5h4
				c1.4,0,2.5,0.2,3.5,0.7c1,0.5,1.7,1.2,2.3,2.1C336,490.7,336.2,491.9,336.2,493.2z M334,493.3c0-1-0.2-1.9-0.5-2.5
				c-0.3-0.7-0.8-1.2-1.5-1.5c-0.7-0.3-1.5-0.5-2.4-0.5h-1.8v9.1h1.5c1.6,0,2.8-0.4,3.5-1.2C333.6,495.9,334,494.8,334,493.3z"/>
		</g>
	</g>
</g>
<g id="cand2-group">
	<g id="Bar2">
		<rect x="69.5" y="368.6" class="st4" width="152.8" height="20"/>
		<rect x="222" y="368.6" class="st5" width="55.6" height="20"/>
		<rect x="276.8" y="368.6" class="st6" width="33.2" height="20"/>
	</g>
	<g id="cand2">
		<path class="st7" d="M109.6,210.3c0,0,0.7-0.7,1.9-1c1.2-0.3,2.8-1.2,4.4-1.3c1.7-0.1-0.3-0.2,2.3,0.7c2.6,0.9,1.9-0.8,2.9-0.8
			s3.7-0.3,4.6,0.3s0.5,0.3,2.3,1.4c1.8,1.1,2.3,1.3,2.6,1.3s3.6,3.3,4,3.7c0.4,0.3,1,1,1.1,2.2c0.1,1.1,1.3,4.7,1.3,5.7
			s0.8,2.9,0.4,3.6c-0.3,0.7,2.1,1.2,2.2,2.4c0.1,1.2,0.5,2.7,0.1,3.9s-0.7,2.8-0.7,3.5s-0.2,1.4,0,2.2s0.6,1.8,0.3,2.3
			c-0.3,0.6-1.6,1.4-2.2,1c-0.6-0.3-0.1,4.9-0.3,5.7s0.6,0,1.5,0.9s2.3,2.9,2.4,4.9c0.2,2,1.9,4,2.2,4s0.5,1.6,0.5,1.6
			s-0.2-0.3,1.8,0.1s5.5,2.3,7.1,2.7c1.6,0.3,1.9,0,3.1,1c1.2,1,2.3,0.3,3.2,0.6c1,0.3,1.2,0.3,1.2,0.3l0.5,0.6c0,0,1.8,0.2,3.2,0.2
			s3.6,1.6,5.2,2c1.6,0.4,1.9,1.4,3.4,2s3.2,5.2,4.4,6.1s1.5,2.7,1.5,3.3c0,0.6-0.4,1.4-0.4,1.4s0.7,4.2,1,6.3c0.3,2.1,1,3.6,1,5.2
			c0.2,4.1,0.2,5.3,0.6,10.2c0.2,2,0.3-0.4,0.3,0.1s-0.4,11.7-0.5,12.5s-0.5,6.4-1,7.3s-1.3,3.9-1.3,3.9s-2,5.1-2.5,5.8
			c-0.5,0.7-2.1,3.7-2.2,4c-0.1,0.3-0.2,1.3-1.5,1.6c-1.3,0.3-1.9,0.8-3.8,0.4c-1.8-0.3-3.2-1.4-3.2-1.4l-1,0.8c0,0-0.2,17.4,0,18.1
			s0.8,15.4,0.8,16.2S83.8,370,83.8,370s0.9-13,1.2-14.4c0.3-1.4,0.1-12.7,0.8-13.6c0.7-0.9,0.5-2.9,0.5-2.9s-1.9-0.5-2.3-0.6
			c-0.3-0.1-2.5,0.1-2.8,0.1s-1.4,0.2-1.9-0.8s-1-1.6-1.7-2.3c-0.6-0.8-3.1-2.5-3.1-4.4c-0.1-1.8-0.5-3.4-0.5-3.4s-0.7-2.5-0.8-3.5
			c-0.1-1-0.4-5.9-0.8-7.1s0.1-20.3,0.5-22.7c0.4-2.3,1.4-4.5,1.4-5.2s-0.4-2.5,0.3-4c0.7-1.5,1.4-3,1.5-4.2c0,0,0.7-2.7,1.5-3.9
			c0.8-1.1,0.8-1.5,1.3-2s1.1-1,1.6-2.3c0.4-1.3,0.5-1.6,1-1.8c0.4-0.3,2-0.8,3-1.6s2.3-3,3.9-2.6c1.7,0.3,3.2-0.5,3.2-0.5
			s1.8-0.1,2.1-0.2c0.3-0.1,1.8-1.3,2.7-1.7c0.9-0.3,2.7,0,3.1-0.2c0.3-0.2,1.3-1.3,2.9-2.2c1.6-0.9,3.3-1.6,3.3-1.6
			s1.5-4.7,1.8-5.5s0.3-0.8,0.3-0.8s-2.5-4.4-2.5-5.3S105,247,105,247s-2.1-0.1-2.4-2.3c-0.3-2.3-1.9-4.1-2.1-4.5s-1-0.9-0.9-2.7
			c0.2-1.8-0.2-3.5,0-4s-0.2-3.2-1-7.2c-0.8-3.9,1.7-7,2.2-7.9s1.1-2,1.4-2.4s3.9-4,4.2-4.4C107.4,211,109.6,210.3,109.6,210.3z"/>
		
			<image style="overflow:visible;enable-background:new    ;" width="343" height="510" xlink:href="cand-selection.png"  transform="matrix(0.3134 0 0 0.3134 69.4708 210.1587)">
		</image>
	</g>
	<g id="eliminated2">
		<path class="st7" d="M342.5,311H220.1c-12.2,0-22.1-9.9-22.1-22.1l0,0c0-12.2,9.9-22.1,22.1-22.1h122.4c12.2,0,22.1,9.9,22.1,22.1
			l0,0C364.6,301.1,354.7,311,342.5,311z"/>
		<g class="st2">
			<path class="st3" d="M236.1,295.6h-7.4v-12.5h7.4v1.7h-5.3v3.4h4.9v1.7h-4.9v3.9h5.3V295.6z"/>
			<path class="st3" d="M238.9,295.6v-12.5h2.1v10.8h5.6v1.7H238.9z"/>
			<path class="st3" d="M248.8,295.6v-12.5h2.1v12.5H248.8z"/>
			<path class="st3" d="M260.1,295.6l-3.8-10.5h-0.1c0,0.2,0,0.6,0.1,1c0,0.4,0,0.8,0.1,1.3s0,0.9,0,1.3v6.9h-2v-12.5h3l3.6,10h0.1
				l3.7-10h3v12.5h-2v-7c0-0.4,0-0.8,0-1.2c0-0.4,0-0.9,0.1-1.3c0-0.4,0-0.7,0-1h-0.1l-3.9,10.4H260.1z"/>
			<path class="st3" d="M271.3,295.6v-12.5h2.1v12.5H271.3z"/>
			<path class="st3" d="M287.8,295.6h-2.6l-6.4-10h-0.1c0,0.3,0,0.7,0.1,1.1c0,0.4,0,0.8,0.1,1.2s0,0.8,0,1.2v6.5h-2v-12.5h2.6
				l6.4,9.9h0.1c0-0.3,0-0.6,0-1c0-0.4,0-0.8,0-1.2c0-0.4,0-0.8,0-1.2v-6.6h2V295.6z"/>
			<path class="st3" d="M299.4,295.6l-1.3-3.5h-5l-1.3,3.5h-2.3l4.9-12.6h2.4l4.9,12.6H299.4z M297.5,290.4l-1.2-3.4
				c0-0.1-0.1-0.4-0.2-0.6c-0.1-0.3-0.2-0.5-0.3-0.8c-0.1-0.3-0.2-0.5-0.2-0.7c-0.1,0.2-0.1,0.5-0.2,0.8c-0.1,0.3-0.2,0.6-0.2,0.8
				c-0.1,0.3-0.1,0.4-0.2,0.6l-1.3,3.4H297.5z"/>
			<path class="st3" d="M307.9,295.6h-2.2v-10.8h-3.8v-1.7h9.8v1.7h-3.8V295.6z"/>
			<path class="st3" d="M321.1,295.6h-7.4v-12.5h7.4v1.7h-5.3v3.4h4.9v1.7h-4.9v3.9h5.3V295.6z"/>
			<path class="st3" d="M334.6,289.3c0,1.4-0.3,2.6-0.8,3.5c-0.5,0.9-1.3,1.7-2.4,2.1c-1,0.5-2.3,0.7-3.8,0.7h-3.6v-12.5h4
				c1.4,0,2.5,0.2,3.5,0.7c1,0.5,1.7,1.2,2.3,2.1C334.3,286.8,334.6,287.9,334.6,289.3z M332.3,289.3c0-1-0.2-1.9-0.5-2.5
				s-0.8-1.2-1.5-1.5s-1.5-0.5-2.4-0.5h-1.8v9.1h1.5c1.6,0,2.8-0.4,3.5-1.2C331.9,292,332.3,290.8,332.3,289.3z"/>
		</g>
	</g>
</g>
</svg>
