<?xml version="1.0" encoding="utf-8"?>
<!-- Generator: Adobe Illustrator 26.3.1, SVG Export Plug-In . SVG Version: 6.00 Build 0)  -->
<svg version="1.1" id="Layer_1" xmlns="http://www.w3.org/2000/svg" xmlns:xlink="http://www.w3.org/1999/xlink" x="0px" y="0px"
	 viewBox="0 0 414 600" style="enable-background:new 0 0 414 600;" xml:space="preserve">
<style type="text/css">
	.st0{fill:none;stroke:#231F20;stroke-miterlimit:10;}
	.st1{fill:none;stroke:#231F20;stroke-miterlimit:10;stroke-dasharray:11.9424,11.9424;}
	.st2{enable-background:new    ;}
	.st3{fill:#231F20;}
	.st4{fill:#EF8124;}
	.st5{fill:#FFDA6A;}
	.st6{fill:#E04C26;}
	.st7{fill:#F1C40F;}
	.st8{fill:#E30D16;}
</style>
<g id="cuttoff-50">
	<g>
		<g>
			<line class="st0" x1="230.2" y1="14.1" x2="230.2" y2="17.2"/>
			<line class="st1" x1="230.2" y1="23.2" x2="230.2" y2="592.4"/>
			<line class="st0" x1="230.2" y1="595.3" x2="230.2" y2="588.4"/>
		</g>
	</g>
	<g class="st2">
		<path class="st3" d="M248.6,22.4c0.9,0,1.6,0.1,2.2,0.4c0.6,0.3,1.1,0.7,1.5,1.3c0.3,0.6,0.5,1.2,0.5,2c0,0.9-0.2,1.6-0.6,2.2
			c-0.4,0.6-0.9,1.1-1.6,1.4s-1.5,0.5-2.5,0.5c-0.7,0-1.3-0.1-1.8-0.2c-0.6-0.1-1-0.3-1.4-0.5v-1.4c0.4,0.3,0.9,0.5,1.5,0.6
			s1.2,0.2,1.7,0.2c0.6,0,1.2-0.1,1.7-0.3c0.5-0.2,0.9-0.5,1.1-0.9c0.3-0.4,0.4-0.9,0.4-1.6c0-0.8-0.3-1.5-0.8-1.9s-1.3-0.7-2.4-0.7
			c-0.4,0-0.8,0-1.2,0.1s-0.8,0.1-1.1,0.2l-0.7-0.5l0.5-5.9h6.3v1.3h-5.1l-0.3,3.8c0.2,0,0.5-0.1,0.8-0.1S248.2,22.4,248.6,22.4z"/>
		<path class="st3" d="M263.1,23.8c0,1-0.1,1.9-0.2,2.8c-0.2,0.8-0.4,1.5-0.7,2c-0.3,0.6-0.8,1-1.3,1.3s-1.2,0.4-1.9,0.4
			c-0.9,0-1.7-0.3-2.3-0.8c-0.6-0.5-1.1-1.3-1.4-2.2c-0.3-1-0.5-2.1-0.5-3.5c0-1.3,0.1-2.5,0.4-3.5c0.3-1,0.7-1.7,1.3-2.2
			c0.6-0.5,1.4-0.8,2.4-0.8s1.7,0.3,2.4,0.8c0.6,0.5,1.1,1.3,1.4,2.2C263,21.3,263.1,22.5,263.1,23.8z M256.2,23.8
			c0,1.2,0.1,2.2,0.3,2.9c0.2,0.8,0.5,1.4,0.9,1.8s0.9,0.6,1.6,0.6s1.2-0.2,1.6-0.6s0.7-1,0.9-1.8c0.2-0.8,0.3-1.8,0.3-2.9
			c0-1.2-0.1-2.1-0.3-2.9c-0.2-0.8-0.5-1.4-0.9-1.8s-0.9-0.6-1.6-0.6s-1.2,0.2-1.6,0.6s-0.7,1-0.9,1.8S256.2,22.7,256.2,23.8z"/>
		<path class="st3" d="M267.5,17.3c0.9,0,1.5,0.3,2,1c0.4,0.7,0.7,1.7,0.7,2.9s-0.2,2.2-0.6,2.9c-0.4,0.7-1.1,1-2,1
			c-0.8,0-1.5-0.3-1.9-1s-0.7-1.7-0.7-2.9s0.2-2.2,0.6-2.9C265.9,17.7,266.6,17.3,267.5,17.3z M267.5,18.4c-0.5,0-0.8,0.2-1,0.7
			s-0.3,1.2-0.3,2.2s0.1,1.7,0.3,2.2c0.2,0.5,0.6,0.7,1,0.7c0.5,0,0.8-0.2,1.1-0.7c0.2-0.5,0.4-1.2,0.4-2.2s-0.1-1.7-0.4-2.2
			C268.3,18.6,267.9,18.4,267.5,18.4z M275.5,17.5l-7,12.6h-1.3l7-12.6H275.5z M275.1,22.4c0.9,0,1.5,0.3,2,1s0.7,1.7,0.7,2.9
			c0,1.3-0.2,2.2-0.6,2.9s-1.1,1.1-2,1.1c-0.8,0-1.5-0.4-1.9-1.1s-0.7-1.7-0.7-2.9c0-1.3,0.2-2.2,0.6-2.9S274.2,22.4,275.1,22.4z
			 M275.1,23.4c-0.5,0-0.8,0.2-1,0.7s-0.3,1.2-0.3,2.2s0.1,1.7,0.3,2.2c0.2,0.5,0.6,0.7,1,0.7c0.5,0,0.8-0.2,1.1-0.7
			c0.2-0.5,0.4-1.2,0.4-2.2s-0.1-1.7-0.3-2.2C276,23.7,275.6,23.4,275.1,23.4z"/>
	</g>
	<g class="st2">
		<path class="st3" d="M250.9,38.9c-0.7,0-1.3,0.1-1.9,0.4s-1,0.6-1.4,1c-0.4,0.5-0.7,1-0.9,1.6s-0.3,1.4-0.3,2.2
			c0,1.1,0.2,2,0.5,2.8s0.8,1.4,1.5,1.8s1.5,0.6,2.5,0.6c0.6,0,1.1,0,1.6-0.1s1-0.2,1.5-0.4v1.3c-0.5,0.2-0.9,0.3-1.5,0.4
			c-0.5,0.1-1.1,0.1-1.8,0.1c-1.3,0-2.4-0.3-3.2-0.8c-0.9-0.5-1.5-1.3-1.9-2.3S245,45.4,245,44c0-1,0.1-1.8,0.4-2.6
			c0.3-0.8,0.7-1.5,1.2-2.1s1.1-1,1.9-1.3c0.8-0.3,1.6-0.5,2.6-0.5c0.6,0,1.3,0.1,1.8,0.2s1.1,0.3,1.6,0.5l-0.6,1.2
			c-0.4-0.2-0.8-0.3-1.3-0.5C252,38.9,251.4,38.9,250.9,38.9z"/>
		<path class="st3" d="M266.2,37.8V46c0,0.9-0.2,1.7-0.5,2.4s-0.9,1.2-1.6,1.6s-1.6,0.6-2.7,0.6c-1.6,0-2.8-0.4-3.6-1.3
			c-0.8-0.8-1.2-2-1.2-3.4v-8.1h1.5V46c0,1.1,0.3,1.9,0.9,2.5s1.4,0.9,2.5,0.9c0.8,0,1.4-0.1,1.9-0.4s0.9-0.7,1.1-1.2
			s0.4-1.1,0.4-1.8v-8.2C264.9,37.8,266.2,37.8,266.2,37.8z"/>
		<path class="st3" d="M273.4,50.4H272V39.1h-4v-1.3h9.4v1.3h-4V50.4z"/>
		<path class="st3" d="M278.3,46.3V45h4.3v1.3H278.3z"/>
		<path class="st3" d="M296,44.1c0,1-0.1,1.9-0.4,2.7c-0.2,0.8-0.6,1.5-1.1,2.1s-1.1,1-1.8,1.3c-0.7,0.3-1.6,0.5-2.5,0.5
			c-1,0-1.8-0.2-2.6-0.5c-0.7-0.3-1.3-0.8-1.8-1.3c-0.5-0.6-0.8-1.3-1.1-2.1c-0.2-0.8-0.4-1.7-0.4-2.7c0-1.3,0.2-2.4,0.6-3.4
			s1.1-1.7,1.9-2.3c0.9-0.5,2-0.8,3.3-0.8s2.3,0.3,3.2,0.8c0.9,0.5,1.5,1.3,1.9,2.3C295.7,41.6,296,42.7,296,44.1z M285.9,44.1
			c0,1.1,0.2,2,0.5,2.8s0.8,1.4,1.4,1.8c0.6,0.4,1.4,0.6,2.4,0.6s1.8-0.2,2.4-0.6c0.6-0.4,1.1-1,1.4-1.8s0.4-1.7,0.4-2.8
			c0-1.6-0.3-2.9-1-3.8c-0.7-0.9-1.7-1.4-3.2-1.4c-1,0-1.8,0.2-2.4,0.6s-1.1,1-1.4,1.8C286.1,42.1,285.9,43,285.9,44.1z"/>
		<path class="st3" d="M300.2,50.4h-1.5V37.8h7v1.3h-5.6v4.6h5.2V45h-5.2v5.4H300.2z"/>
		<path class="st3" d="M309.4,50.4h-1.5V37.8h7v1.3h-5.6v4.6h5.2V45h-5.2v5.4H309.4z"/>
	</g>
</g>
<g id="cand1-group">
	<g id="Bar1">
		<rect x="69.5" y="170.9" class="st4" width="164.8" height="20"/>
		<rect x="234" y="170.9" class="st5" width="67.8" height="20"/>
		<rect x="301.2" y="170.9" class="st6" width="47.4" height="20"/>
	</g>
	<g id="cand1_00000011711539426293931580000002088214723144697476_">
		<path class="st7" d="M109.6,12.2c0,0,0.7-0.7,1.9-1c1.2-0.3,2.8-1.2,4.4-1.3c1.7-0.1-0.3-0.2,2.3,0.7c2.6,0.9,1.9-0.8,2.9-0.8
			s3.7-0.3,4.6,0.3s0.5,0.3,2.3,1.4c1.8,1.1,2.3,1.3,2.6,1.3s3.6,3.3,4,3.7c0.4,0.3,1,1,1.1,2.2c0.1,1.1,1.3,4.7,1.3,5.7
			s0.8,2.9,0.4,3.6c-0.3,0.7,2.1,1.2,2.2,2.4c0.1,1.2,0.5,2.7,0.1,3.9s-0.7,2.8-0.7,3.5s-0.2,1.4,0,2.2s0.6,1.8,0.3,2.3
			c-0.3,0.6-1.6,1.4-2.2,1c-0.6-0.3-0.1,4.9-0.3,5.7s0.6,0,1.5,0.9s2.3,2.9,2.4,4.9c0.2,2,1.9,4,2.2,4s0.5,1.6,0.5,1.6
			s-0.2-0.3,1.8,0.1c2,0.4,5.5,2.3,7.1,2.7s1.9,0,3.1,1s2.3,0.3,3.2,0.6c1,0.3,1.2,0.3,1.2,0.3l0.5,0.6c0,0,1.8,0.2,3.2,0.2
			s3.6,1.6,5.2,2c1.6,0.4,1.9,1.4,3.4,2s3.2,5.2,4.4,6.1s1.5,2.7,1.5,3.3c0,0.6-0.4,1.4-0.4,1.4s0.7,4.2,1,6.3c0.3,2.1,1,3.6,1,5.2
			c0.2,4.1,0.2,5.3,0.6,10.2c0.2,2,0.3-0.4,0.3,0.1c0,0.4-0.4,11.7-0.5,12.5s-0.5,6.4-1,7.3s-1.3,3.9-1.3,3.9s-2,5.1-2.5,5.8
			s-2.1,3.7-2.2,4c-0.1,0.3-0.2,1.3-1.5,1.6s-1.9,0.8-3.8,0.4s-3.2-1.4-3.2-1.4l-1,0.8c0,0-0.2,17.4,0,18.1
			c0.2,0.7,0.8,15.4,0.8,16.2s-80.5,0.2-80.5,0.2s0.9-13,1.2-14.4c0.3-1.4,0.1-12.7,0.8-13.6c0.7-0.9,0.5-2.9,0.5-2.9
			s-1.9-0.5-2.3-0.6c-0.3-0.1-2.5,0.1-2.8,0.1s-1.4,0.2-1.9-0.8s-1-1.6-1.7-2.3c-0.6-0.8-3.1-2.5-3.1-4.4c-0.1-1.8-0.5-3.4-0.5-3.4
			s-0.7-2.5-0.8-3.5c-0.1-1-0.4-5.9-0.8-7.1c-0.3-1.2,0.1-20.3,0.5-22.7C74,93.9,75,91.7,75,91s-0.4-2.5,0.3-4
			c0.7-1.5,1.4-3,1.5-4.2c0,0,0.7-2.7,1.5-3.9c0.8-1.1,0.8-1.5,1.3-2s1.1-1,1.6-2.3c0.4-1.3,0.5-1.6,1-1.8c0.4-0.3,2-0.8,3-1.6
			c1-0.8,2.3-3,3.9-2.6c1.7,0.3,3.2-0.5,3.2-0.5s1.8-0.1,2.1-0.2c0.3-0.1,1.8-1.3,2.7-1.7c0.9-0.3,2.7,0,3.1-0.2
			c0.3-0.2,1.3-1.3,2.9-2.2c1.6-0.9,3.3-1.6,3.3-1.6s1.5-4.7,1.8-5.5s0.3-0.8,0.3-0.8s-2.5-4.4-2.5-5.3c0-0.9-0.3-1.8-0.3-1.8
			s-2.1-0.1-2.4-2.3c-0.3-2.3-1.9-4.1-2.1-4.5s-1-0.9-0.9-2.7c0.2-1.8-0.2-3.5,0-4s-0.2-3.2-1-7.2c-0.8-3.9,1.7-7,2.2-7.9
			s1.1-2,1.4-2.4s3.9-4,4.2-4.4C107.4,12.9,109.6,12.2,109.6,12.2z"/>
		
			<image style="overflow:visible;enable-background:new    ;" width="343" height="510" xlink:href="cand-selection.png"  transform="matrix(0.3134 0 0 0.3134 69.4708 12.0866)">
		</image>
	</g>
</g>
<g id="cand3-group">
	<g id="Bar3">
		<rect x="69.5" y="566.9" class="st4" width="94.6" height="20"/>
		<rect x="163.9" y="566.9" class="st5" width="38.9" height="20"/>
		<rect x="202.4" y="566.9" class="st6" width="27.2" height="20"/>
	</g>
	<g id="candidate3">
		<path class="st7" d="M109.6,408.2c0,0,0.7-0.7,1.9-1c1.2-0.3,2.8-1.2,4.4-1.3c1.7-0.1-0.3-0.2,2.3,0.7c2.6,0.9,1.9-0.8,2.9-0.8
			s3.7-0.3,4.6,0.3c1,0.6,0.5,0.3,2.3,1.4c1.8,1.1,2.3,1.3,2.6,1.3s3.6,3.3,4,3.7c0.4,0.3,1,1,1.1,2.2c0.1,1.1,1.3,4.7,1.3,5.7
			s0.8,2.9,0.4,3.6s2.1,1.2,2.2,2.4c0.1,1.2,0.5,2.7,0.1,3.9s-0.7,2.8-0.7,3.5s-0.2,1.4,0,2.2c0.2,0.8,0.6,1.8,0.3,2.3
			c-0.3,0.6-1.6,1.4-2.2,1c-0.6-0.3-0.1,4.9-0.3,5.7c-0.2,0.8,0.6,0,1.5,0.9s2.3,2.9,2.4,4.9c0.2,2,1.9,4,2.2,4s0.5,1.6,0.5,1.6
			s-0.2-0.3,1.8,0.1s5.5,2.3,7.1,2.7c1.6,0.4,1.9,0,3.1,1c1.2,1,2.3,0.3,3.2,0.6c1,0.3,1.2,0.3,1.2,0.3l0.5,0.6c0,0,1.8,0.2,3.2,0.2
			s3.6,1.6,5.2,2c1.6,0.4,1.9,1.4,3.4,2s3.2,5.2,4.4,6.1s1.5,2.7,1.5,3.3c0,0.6-0.4,1.4-0.4,1.4s0.7,4.2,1,6.3c0.3,2.1,1,3.6,1,5.2
			c0.2,4.1,0.2,5.3,0.6,10.2c0.2,2,0.3-0.4,0.3,0.1s-0.4,11.7-0.5,12.5s-0.5,6.4-1,7.3s-1.3,3.9-1.3,3.9s-2,5.1-2.5,5.8
			s-2.1,3.7-2.2,4s-0.2,1.3-1.5,1.6s-1.9,0.8-3.8,0.4s-3.2-1.4-3.2-1.4l-1,0.8c0,0-0.2,17.4,0,18.1c0.2,0.7,0.8,15.4,0.8,16.2
			s-80.5,0.2-80.5,0.2s0.9-13,1.2-14.4c0.3-1.4,0.1-12.7,0.8-13.6c0.7-0.9,0.5-2.9,0.5-2.9s-1.9-0.5-2.3-0.6
			c-0.3-0.1-2.5,0.1-2.8,0.1s-1.4,0.2-1.9-0.8s-1-1.6-1.7-2.3c-0.6-0.8-3.1-2.5-3.1-4.4c-0.1-1.8-0.5-3.4-0.5-3.4s-0.7-2.5-0.8-3.5
			c-0.1-1-0.4-5.9-0.8-7.1c-0.3-1.2,0.1-20.3,0.5-22.7c0.4-2.3,1.4-4.5,1.4-5.2s-0.4-2.5,0.3-4c0.7-1.5,1.4-3,1.5-4.2
			c0,0,0.7-2.7,1.5-3.9c0.8-1.1,0.8-1.5,1.3-2s1.1-1,1.6-2.3c0.4-1.3,0.5-1.6,1-1.8c0.4-0.3,2-0.8,3-1.6s2.3-3,3.9-2.6
			c1.7,0.3,3.2-0.5,3.2-0.5s1.8-0.1,2.1-0.2c0.3-0.1,1.8-1.3,2.7-1.7c0.9-0.3,2.7,0,3.1-0.2c0.3-0.2,1.3-1.3,2.9-2.2
			c1.6-0.9,3.3-1.6,3.3-1.6s1.5-4.7,1.8-5.5s0.3-0.8,0.3-0.8s-2.5-4.4-2.5-5.3s-0.3-1.8-0.3-1.8s-2.1-0.1-2.4-2.3
			c-0.3-2.3-1.9-4.1-2.1-4.5s-1-0.9-0.9-2.7c0.2-1.8-0.2-3.5,0-4s-0.2-3.2-1-7.2c-0.8-3.9,1.7-7,2.2-7.9s1.1-2,1.4-2.4
			s3.9-4,4.2-4.4C107.4,408.9,109.6,408.2,109.6,408.2z"/>
		
			<image style="overflow:visible;enable-background:new    ;" width="343" height="510" xlink:href="cand-selection.png"  transform="matrix(0.3134 0 0 0.3134 69.4708 408.1154)">
		</image>
	</g>
	<g id="eliminated3">
		<g>
			<g>
				<path class="st8" d="M362.6,505.2l-142.2,23.3l-7.2-44l142.2-23.3L362.6,505.2z M223.1,524.8l135.8-22.2l-6.2-37.6L217,487.2
					L223.1,524.8z"/>
			</g>
			<g>
				<path class="st8" d="M230.9,514.1l-3-17.4l10.7-1.8l0.6,3.6l-7.1,1.2l0.6,3.3l6.6-1.1l0.6,3.4l-6.6,1.1l0.6,3.6l7.5-1.3l0.6,3.6
					L230.9,514.1z"/>
				<path class="st8" d="M243.7,511.9l-3-17.4l3.6-0.6l2.4,13.7l6.7-1.2l0.6,3.7L243.7,511.9z"/>
				<path class="st8" d="M255.5,509.9l-3-17.4l3.6-0.6l3,17.4L255.5,509.9z"/>
				<path class="st8" d="M261.5,508.9l-3-17.4l3.8-0.6l5,7.6l2.2-8.8l3.6-0.6l3,17.4l-3.3,0.6l-1.9-11.2l-1.9,7.7l-1.7,0.3l-4.3-6.5
					l1.9,11.2L261.5,508.9z"/>
				<path class="st8" d="M278.4,505.9l-3-17.4l3.6-0.6l3,17.4L278.4,505.9z"/>
				<path class="st8" d="M284.3,504.9l-3-17.4l3.4-0.6l7.5,10l-1.9-10.9l3.2-0.6l3,17.4l-3.4,0.6l-7.5-9.7l1.8,10.7L284.3,504.9z"/>
				<path class="st8" d="M297.9,502.6l1.7-18.3l4.3-0.7l7.8,16.6l-4,0.7l-1.3-3.1l-4.6,0.8l-0.2,3.4L297.9,502.6z M302,495l3.2-0.6
					l-2.9-7.2L302,495z"/>
				<path class="st8" d="M320.8,484.6l-4.4,0.8l2.4,13.7l-3.6,0.6l-2.4-13.7l-4.4,0.8l-0.6-3.7l12.4-2.1L320.8,484.6z"/>
				<path class="st8" d="M324.6,498l-3-17.4l10.7-1.8l0.6,3.6l-7.1,1.2l0.6,3.3l6.6-1.1l0.6,3.4l-6.6,1.1l0.6,3.6l7.5-1.3l0.6,3.6
					L324.6,498z"/>
				<path class="st8" d="M343.2,495c-0.7,0.1-1.4,0.2-2.1,0.3c-0.7,0.1-1.3,0.2-1.9,0.2s-1.2,0.1-1.8,0.2l-3-17.4
					c0.7-0.2,1.3-0.3,1.9-0.5c0.6-0.1,1.2-0.3,1.8-0.4c0.6-0.1,1.2-0.2,1.9-0.4c1.7-0.3,3.2-0.2,4.4,0.2c1.2,0.4,2.1,1.3,2.9,2.5
					c0.7,1.2,1.3,2.9,1.6,5c0.4,2.1,0.4,3.8,0.1,5.2c-0.3,1.4-0.9,2.5-1.9,3.3C346.1,494.2,344.8,494.8,343.2,495z M342.9,491.7
					c0.7-0.1,1.2-0.4,1.6-0.9c0.4-0.5,0.6-1.1,0.7-2c0.1-0.9,0-2-0.2-3.3c-0.2-1.4-0.6-2.5-0.9-3.3c-0.4-0.8-0.8-1.3-1.4-1.6
					c-0.5-0.3-1.2-0.3-1.9-0.2c-0.3,0-0.5,0.1-0.8,0.1c-0.3,0.1-0.5,0.1-0.8,0.2c-0.3,0.1-0.5,0.1-0.7,0.2l1.9,11.1
					c0.2,0,0.4-0.1,0.6-0.1c0.2,0,0.4,0,0.6-0.1s0.4-0.1,0.6-0.1S342.7,491.7,342.9,491.7z"/>
			</g>
		</g>
	</g>
</g>
<g id="cand2-group">
	<g id="Bar2">
		<rect x="69.5" y="368.6" class="st4" width="152.8" height="20"/>
		<rect x="222" y="368.6" class="st5" width="55.6" height="20"/>
		<rect x="276.8" y="368.6" class="st6" width="33.2" height="20"/>
	</g>
	<g id="cand2">
		<path class="st7" d="M109.6,210.3c0,0,0.7-0.7,1.9-1c1.2-0.3,2.8-1.2,4.4-1.3c1.7-0.1-0.3-0.2,2.3,0.7c2.6,0.9,1.9-0.8,2.9-0.8
			s3.7-0.3,4.6,0.3s0.5,0.3,2.3,1.4c1.8,1.1,2.3,1.3,2.6,1.3s3.6,3.3,4,3.7c0.4,0.3,1,1,1.1,2.2c0.1,1.1,1.3,4.7,1.3,5.7
			s0.8,2.9,0.4,3.6c-0.3,0.7,2.1,1.2,2.2,2.4c0.1,1.2,0.5,2.7,0.1,3.9s-0.7,2.8-0.7,3.5s-0.2,1.4,0,2.2s0.6,1.8,0.3,2.3
			c-0.3,0.6-1.6,1.4-2.2,1c-0.6-0.3-0.1,4.9-0.3,5.7s0.6,0,1.5,0.9s2.3,2.9,2.4,4.9c0.2,2,1.9,4,2.2,4s0.5,1.6,0.5,1.6
			s-0.2-0.3,1.8,0.1s5.5,2.3,7.1,2.7c1.6,0.3,1.9,0,3.1,1c1.2,1,2.3,0.3,3.2,0.6c1,0.3,1.2,0.3,1.2,0.3l0.5,0.6c0,0,1.8,0.2,3.2,0.2
			s3.6,1.6,5.2,2c1.6,0.4,1.9,1.4,3.4,2s3.2,5.2,4.4,6.1s1.5,2.7,1.5,3.3c0,0.6-0.4,1.4-0.4,1.4s0.7,4.2,1,6.3c0.3,2.1,1,3.6,1,5.2
			c0.2,4.1,0.2,5.3,0.6,10.2c0.2,2,0.3-0.4,0.3,0.1s-0.4,11.7-0.5,12.5s-0.5,6.4-1,7.3s-1.3,3.9-1.3,3.9s-2,5.1-2.5,5.8
			c-0.5,0.7-2.1,3.7-2.2,4c-0.1,0.3-0.2,1.3-1.5,1.6c-1.3,0.3-1.9,0.8-3.8,0.4c-1.8-0.3-3.2-1.4-3.2-1.4l-1,0.8c0,0-0.2,17.4,0,18.1
			s0.8,15.4,0.8,16.2S83.8,370,83.8,370s0.9-13,1.2-14.4c0.3-1.4,0.1-12.7,0.8-13.6c0.7-0.9,0.5-2.9,0.5-2.9s-1.9-0.5-2.3-0.6
			c-0.3-0.1-2.5,0.1-2.8,0.1s-1.4,0.2-1.9-0.8s-1-1.6-1.7-2.3c-0.6-0.8-3.1-2.5-3.1-4.4c-0.1-1.8-0.5-3.4-0.5-3.4s-0.7-2.5-0.8-3.5
			c-0.1-1-0.4-5.9-0.8-7.1s0.1-20.3,0.5-22.7c0.4-2.3,1.4-4.5,1.4-5.2s-0.4-2.5,0.3-4c0.7-1.5,1.4-3,1.5-4.2c0,0,0.7-2.7,1.5-3.9
			c0.8-1.1,0.8-1.5,1.3-2s1.1-1,1.6-2.3c0.4-1.3,0.5-1.6,1-1.8c0.4-0.3,2-0.8,3-1.6s2.3-3,3.9-2.6c1.7,0.3,3.2-0.5,3.2-0.5
			s1.8-0.1,2.1-0.2c0.3-0.1,1.8-1.3,2.7-1.7c0.9-0.3,2.7,0,3.1-0.2c0.3-0.2,1.3-1.3,2.9-2.2c1.6-0.9,3.3-1.6,3.3-1.6
			s1.5-4.7,1.8-5.5s0.3-0.8,0.3-0.8s-2.5-4.4-2.5-5.3S105,247,105,247s-2.1-0.1-2.4-2.3c-0.3-2.3-1.9-4.1-2.1-4.5s-1-0.9-0.9-2.7
			c0.2-1.8-0.2-3.5,0-4s-0.2-3.2-1-7.2c-0.8-3.9,1.7-7,2.2-7.9s1.1-2,1.4-2.4s3.9-4,4.2-4.4C107.4,211,109.6,210.3,109.6,210.3z"/>
		
			<image style="overflow:visible;enable-background:new    ;" width="343" height="510" xlink:href="cand-selection.png"  transform="matrix(0.3134 0 0 0.3134 69.4708 210.1587)">
		</image>
	</g>
	<g id="eliminated2">
		<g>
			<path class="st8" d="M365.6,307l-142.2,23.3l-7.2-44l142.2-23.3L365.6,307z M226.1,326.5l135.8-22.2l-6.2-37.6L220,288.9
				L226.1,326.5z"/>
		</g>
		<g>
			<path class="st8" d="M233.9,315.8l-3-17.4l10.7-1.8l0.6,3.6l-7.1,1.2l0.6,3.3l6.6-1.1l0.6,3.4l-6.6,1.1l0.6,3.6l7.5-1.3l0.6,3.6
				L233.9,315.8z"/>
			<path class="st8" d="M246.7,313.6l-3-17.4l3.6-0.6l2.4,13.7l6.7-1.2l0.6,3.7L246.7,313.6z"/>
			<path class="st8" d="M258.6,311.6l-3-17.4l3.6-0.6l3,17.4L258.6,311.6z"/>
			<path class="st8" d="M264.5,310.6l-3-17.4l3.8-0.6l5,7.6l2.2-8.8l3.6-0.6l3,17.4l-3.3,0.6l-1.9-11.2l-1.9,7.7l-1.7,0.3l-4.3-6.5
				l1.9,11.2L264.5,310.6z"/>
			<path class="st8" d="M281.4,307.7l-3-17.4l3.6-0.6l3,17.4L281.4,307.7z"/>
			<path class="st8" d="M287.4,306.6l-3-17.4l3.4-0.6l7.5,10l-1.9-10.9l3.2-0.6l3,17.4l-3.4,0.6l-7.5-9.7l1.8,10.7L287.4,306.6z"/>
			<path class="st8" d="M300.9,304.3l1.7-18.3l4.3-0.7l7.8,16.6l-4,0.7l-1.3-3.1l-4.6,0.8l-0.2,3.4L300.9,304.3z M305,296.7l3.2-0.6
				l-2.9-7.2L305,296.7z"/>
			<path class="st8" d="M323.8,286.3l-4.4,0.8l2.4,13.7l-3.6,0.6l-2.4-13.7l-4.4,0.8l-0.6-3.7l12.4-2.1L323.8,286.3z"/>
			<path class="st8" d="M327.6,299.7l-3-17.4l10.7-1.8l0.6,3.6l-7.1,1.2l0.6,3.3l6.6-1.1l0.6,3.4l-6.6,1.1l0.6,3.6l7.5-1.3l0.6,3.6
				L327.6,299.7z"/>
			<path class="st8" d="M346.2,296.8c-0.7,0.1-1.4,0.2-2.1,0.3c-0.7,0.1-1.3,0.2-1.9,0.2s-1.2,0.1-1.8,0.2l-3-17.4
				c0.7-0.2,1.3-0.3,1.9-0.5c0.6-0.1,1.2-0.3,1.8-0.4c0.6-0.1,1.2-0.2,1.9-0.4c1.7-0.3,3.2-0.2,4.4,0.2c1.2,0.4,2.1,1.3,2.9,2.5
				c0.7,1.2,1.3,2.9,1.6,5c0.4,2.1,0.4,3.8,0.1,5.2c-0.3,1.4-0.9,2.5-1.9,3.3C349.1,295.9,347.8,296.5,346.2,296.8z M345.9,293.4
				c0.7-0.1,1.2-0.4,1.6-0.9c0.4-0.5,0.6-1.1,0.7-2c0.1-0.9,0-2-0.2-3.3c-0.2-1.4-0.6-2.5-0.9-3.3c-0.4-0.8-0.8-1.3-1.4-1.6
				c-0.5-0.3-1.2-0.3-1.9-0.2c-0.3,0-0.5,0.1-0.8,0.1c-0.3,0.1-0.5,0.1-0.8,0.2c-0.3,0.1-0.5,0.1-0.7,0.2l1.9,11.1
				c0.2,0,0.4-0.1,0.6-0.1c0.2,0,0.4,0,0.6-0.1s0.4-0.1,0.6-0.1S345.7,293.4,345.9,293.4z"/>
		</g>
	</g>
</g>
</svg>
