<?xml version="1.0" encoding="utf-8"?>
<!-- Generator: Adobe Illustrator 26.3.1, SVG Export Plug-In . SVG Version: 6.00 Build 0)  -->
<svg version="1.1" id="Layer_1" xmlns="http://www.w3.org/2000/svg" xmlns:xlink="http://www.w3.org/1999/xlink" x="0px" y="0px"
	 viewBox="0 0 414 600" style="enable-background:new 0 0 414 600;" xml:space="preserve">
<style type="text/css">
	.st0{fill:none;stroke:#231F20;stroke-miterlimit:10;}
	.st1{fill:none;stroke:#231F20;stroke-miterlimit:10;stroke-dasharray:11.9424,11.9424;}
	.st2{enable-background:new    ;}
	.st3{fill:#231F20;}
	.st4{fill:#EF8124;}
	.st5{fill:#FFDA6A;}
	.st6{fill:#E04C26;}
	.st7{fill:#F1C40F;}
	.st8{fill:#E30D16;}
</style>
<g id="cuttoff-50">
	<g>
		<g>
			<line class="st0" x1="210.2" y1="14.1" x2="210.2" y2="17.2"/>
			<line class="st1" x1="210.2" y1="23.2" x2="210.2" y2="592.4"/>
			<line class="st0" x1="210.2" y1="595.3" x2="210.2" y2="588.4"/>
		</g>
	</g>
	<g class="st2">
		<path class="st3" d="M228.6,22.4c0.9,0,1.6,0.1,2.2,0.4c0.6,0.3,1.1,0.7,1.5,1.3c0.3,0.6,0.5,1.2,0.5,2c0,0.9-0.2,1.6-0.6,2.2
			c-0.4,0.6-0.9,1.1-1.6,1.4s-1.5,0.5-2.5,0.5c-0.7,0-1.3-0.1-1.8-0.2c-0.6-0.1-1-0.3-1.4-0.5v-1.4c0.4,0.3,0.9,0.5,1.5,0.6
			s1.2,0.2,1.7,0.2c0.6,0,1.2-0.1,1.7-0.3c0.5-0.2,0.9-0.5,1.1-0.9c0.3-0.4,0.4-0.9,0.4-1.6c0-0.8-0.3-1.5-0.8-1.9s-1.3-0.7-2.4-0.7
			c-0.4,0-0.8,0-1.2,0.1s-0.8,0.1-1.1,0.2l-0.7-0.5l0.5-5.9h6.3v1.3h-5.1l-0.3,3.8c0.2,0,0.5-0.1,0.8-0.1S228.2,22.4,228.6,22.4z"/>
		<path class="st3" d="M243.1,23.8c0,1-0.1,1.9-0.2,2.8c-0.2,0.8-0.4,1.5-0.7,2c-0.3,0.6-0.8,1-1.3,1.3s-1.2,0.4-1.9,0.4
			c-0.9,0-1.7-0.3-2.3-0.8c-0.6-0.5-1.1-1.3-1.4-2.2c-0.3-1-0.5-2.1-0.5-3.5c0-1.3,0.1-2.5,0.4-3.5c0.3-1,0.7-1.7,1.3-2.2
			c0.6-0.5,1.4-0.8,2.4-0.8s1.7,0.3,2.4,0.8c0.6,0.5,1.1,1.3,1.4,2.2C243,21.3,243.1,22.5,243.1,23.8z M236.2,23.8
			c0,1.2,0.1,2.2,0.3,2.9c0.2,0.8,0.5,1.4,0.9,1.8s0.9,0.6,1.6,0.6s1.2-0.2,1.6-0.6s0.7-1,0.9-1.8c0.2-0.8,0.3-1.8,0.3-2.9
			c0-1.2-0.1-2.1-0.3-2.9c-0.2-0.8-0.5-1.4-0.9-1.8s-0.9-0.6-1.6-0.6s-1.2,0.2-1.6,0.6s-0.7,1-0.9,1.8S236.2,22.7,236.2,23.8z"/>
		<path class="st3" d="M247.5,17.3c0.9,0,1.5,0.3,2,1c0.4,0.7,0.7,1.7,0.7,2.9s-0.2,2.2-0.6,2.9c-0.4,0.7-1.1,1-2,1
			c-0.8,0-1.5-0.3-1.9-1s-0.7-1.7-0.7-2.9s0.2-2.2,0.6-2.9C245.9,17.7,246.6,17.3,247.5,17.3z M247.5,18.4c-0.5,0-0.8,0.2-1,0.7
			s-0.3,1.2-0.3,2.2s0.1,1.7,0.3,2.2c0.2,0.5,0.6,0.7,1,0.7c0.5,0,0.8-0.2,1.1-0.7c0.2-0.5,0.4-1.2,0.4-2.2s-0.1-1.7-0.4-2.2
			C248.3,18.6,247.9,18.4,247.5,18.4z M255.5,17.5l-7,12.6h-1.3l7-12.6H255.5z M255.1,22.4c0.9,0,1.5,0.3,2,1s0.7,1.7,0.7,2.9
			c0,1.3-0.2,2.2-0.6,2.9s-1.1,1.1-2,1.1c-0.8,0-1.5-0.4-1.9-1.1s-0.7-1.7-0.7-2.9c0-1.3,0.2-2.2,0.6-2.9S254.2,22.4,255.1,22.4z
			 M255.1,23.4c-0.5,0-0.8,0.2-1,0.7s-0.3,1.2-0.3,2.2s0.1,1.7,0.3,2.2c0.2,0.5,0.6,0.7,1,0.7c0.5,0,0.8-0.2,1.1-0.7
			c0.2-0.5,0.4-1.2,0.4-2.2s-0.1-1.7-0.3-2.2C256,23.7,255.6,23.4,255.1,23.4z"/>
	</g>
	<g class="st2">
		<path class="st3" d="M230.9,38.9c-0.7,0-1.3,0.1-1.9,0.4s-1,0.6-1.4,1c-0.4,0.5-0.7,1-0.9,1.6s-0.3,1.4-0.3,2.2
			c0,1.1,0.2,2,0.5,2.8s0.8,1.4,1.5,1.8s1.5,0.6,2.5,0.6c0.6,0,1.1,0,1.6-0.1s1-0.2,1.5-0.4v1.3c-0.5,0.2-0.9,0.3-1.5,0.4
			c-0.5,0.1-1.1,0.1-1.8,0.1c-1.3,0-2.4-0.3-3.2-0.8c-0.9-0.5-1.5-1.3-1.9-2.3S225,45.4,225,44c0-1,0.1-1.8,0.4-2.6
			c0.3-0.8,0.7-1.5,1.2-2.1s1.1-1,1.9-1.3c0.8-0.3,1.6-0.5,2.6-0.5c0.6,0,1.3,0.1,1.8,0.2s1.1,0.3,1.6,0.5l-0.6,1.2
			c-0.4-0.2-0.8-0.3-1.3-0.5C232,38.9,231.4,38.9,230.9,38.9z"/>
		<path class="st3" d="M246.2,37.8V46c0,0.9-0.2,1.7-0.5,2.4s-0.9,1.2-1.6,1.6s-1.6,0.6-2.7,0.6c-1.6,0-2.8-0.4-3.6-1.3
			c-0.8-0.8-1.2-2-1.2-3.4v-8.1h1.5V46c0,1.1,0.3,1.9,0.9,2.5s1.4,0.9,2.5,0.9c0.8,0,1.4-0.1,1.9-0.4s0.9-0.7,1.1-1.2
			s0.4-1.1,0.4-1.8v-8.2C244.9,37.8,246.2,37.8,246.2,37.8z"/>
		<path class="st3" d="M253.4,50.4H252V39.1h-4v-1.3h9.4v1.3h-4V50.4z"/>
		<path class="st3" d="M258.3,46.3V45h4.3v1.3H258.3z"/>
		<path class="st3" d="M276,44.1c0,1-0.1,1.9-0.4,2.7c-0.2,0.8-0.6,1.5-1.1,2.1s-1.1,1-1.8,1.3c-0.7,0.3-1.6,0.5-2.5,0.5
			c-1,0-1.8-0.2-2.6-0.5c-0.7-0.3-1.3-0.8-1.8-1.3c-0.5-0.6-0.8-1.3-1.1-2.1c-0.2-0.8-0.4-1.7-0.4-2.7c0-1.3,0.2-2.4,0.6-3.4
			s1.1-1.7,1.9-2.3c0.9-0.5,2-0.8,3.3-0.8s2.3,0.3,3.2,0.8c0.9,0.5,1.5,1.3,1.9,2.3C275.7,41.6,276,42.7,276,44.1z M265.9,44.1
			c0,1.1,0.2,2,0.5,2.8s0.8,1.4,1.4,1.8c0.6,0.4,1.4,0.6,2.4,0.6s1.8-0.2,2.4-0.6c0.6-0.4,1.1-1,1.4-1.8s0.4-1.7,0.4-2.8
			c0-1.6-0.3-2.9-1-3.8c-0.7-0.9-1.7-1.4-3.2-1.4c-1,0-1.8,0.2-2.4,0.6s-1.1,1-1.4,1.8C266.1,42.1,265.9,43,265.9,44.1z"/>
		<path class="st3" d="M280.2,50.4h-1.5V37.8h7v1.3h-5.6v4.6h5.2V45h-5.2v5.4H280.2z"/>
		<path class="st3" d="M289.4,50.4h-1.5V37.8h7v1.3h-5.6v4.6h5.2V45h-5.2v5.4H289.4z"/>
	</g>
</g>
<g id="cand1-group">
	<g id="Bar1">
		<rect id="bar11" x="69.5" y="170.9" class="st4" width="164.8" height="20"/>
		<rect id="bar12" x="234" y="170.9" class="st5" width="67.8" height="20"/>
		<rect id="bar13" x="301.2" y="170.9" class="st6" width="47.4" height="20"/>
	</g>
	<g id="candtxt1">
		<g>
			<path d="M238.5,105.5c0-1.9,0.3-3.4,0.8-4.6c0.5-1.2,1.3-2,2.4-2.6s2.4-0.8,3.9-0.8c0.5,0,0.9,0,1.3,0c0.4,0,0.8,0.1,1.1,0.1
				c0.4,0.1,0.7,0.1,1,0.2s0.7,0.2,1,0.3l-0.6,2.4c-0.4-0.1-0.8-0.2-1.2-0.3c-0.4-0.1-0.8-0.1-1.2-0.1c-0.4,0-0.8,0-1.2,0
				c-0.7,0-1.4,0.1-2,0.3c-0.6,0.2-1,0.5-1.4,0.9c-0.4,0.4-0.6,1-0.8,1.7c-0.2,0.7-0.3,1.6-0.3,2.6c0,1,0.1,1.7,0.3,2.4
				c0.2,0.6,0.4,1.2,0.8,1.6c0.4,0.4,0.8,0.7,1.3,0.9c0.5,0.2,1.2,0.3,1.9,0.3c0.7,0,1.4,0,2.1-0.1c0.7-0.1,1.4-0.2,2-0.4l0.5,2.3
				c-0.3,0.1-0.7,0.2-1.1,0.3s-0.8,0.2-1.2,0.2c-0.4,0.1-0.9,0.1-1.3,0.1c-0.5,0-1,0.1-1.5,0.1c-1.1,0-2.1-0.1-2.9-0.4
				s-1.6-0.7-2.1-1.3s-1-1.4-1.3-2.3S238.5,106.9,238.5,105.5z"/>
			<path d="M251.4,109.8c0-0.7,0.1-1.3,0.4-1.8c0.3-0.5,0.7-0.8,1.3-1.1s1.3-0.5,2.1-0.6s1.9-0.3,3-0.4v-1.1c0-0.5-0.2-0.9-0.6-1.2
				s-1-0.4-1.7-0.4c-0.3,0-0.6,0-1,0c-0.4,0-0.8,0.1-1.2,0.2c-0.4,0.1-0.8,0.2-1.2,0.3l-0.5-2.3c0.6-0.2,1.3-0.4,2.1-0.5
				c0.7-0.1,1.4-0.2,2-0.2c1.1,0,2.1,0.1,2.8,0.4s1.3,0.7,1.6,1.3c0.4,0.6,0.5,1.3,0.5,2.2v4.7c0,0.4,0.1,0.7,0.2,0.8
				s0.3,0.2,0.4,0.2c0.1,0,0.2,0,0.3,0s0.2,0,0.3-0.1l0.2,2.1c-0.2,0.1-0.5,0.3-0.8,0.4c-0.3,0.1-0.7,0.1-1,0.1
				c-0.6,0-1-0.1-1.4-0.4c-0.3-0.2-0.6-0.6-0.8-1.1c-0.4,0.3-0.7,0.5-1.1,0.7s-0.8,0.4-1.3,0.5c-0.5,0.1-1,0.2-1.5,0.2
				c-0.5,0-0.9-0.1-1.3-0.2c-0.4-0.1-0.7-0.4-1-0.6c-0.3-0.3-0.5-0.6-0.6-1C251.5,110.8,251.4,110.3,251.4,109.8z M254.3,109.6
				c0,0.5,0.1,0.9,0.4,1.1s0.6,0.4,1,0.4c0.3,0,0.6-0.1,0.9-0.2c0.3-0.1,0.6-0.2,0.9-0.4s0.6-0.4,0.8-0.6v-2.4
				c-0.6,0-1.2,0.1-1.7,0.2s-0.9,0.2-1.2,0.3c-0.3,0.1-0.6,0.3-0.8,0.6C254.4,108.9,254.3,109.2,254.3,109.6z"/>
			<path d="M263.7,112.8v-11.7h2.6v1c0.5-0.3,0.9-0.5,1.4-0.7s0.9-0.3,1.3-0.4c0.4-0.1,0.9-0.1,1.3-0.1c0.7,0,1.4,0.1,1.9,0.4
				c0.5,0.3,0.9,0.6,1.1,1.1c0.2,0.5,0.4,1.1,0.4,1.8v8.6h-2.9v-7.7c0-0.6-0.1-1.1-0.4-1.3c-0.3-0.3-0.7-0.4-1.3-0.4
				c-0.3,0-0.6,0-0.8,0.1c-0.3,0.1-0.5,0.1-0.8,0.2c-0.3,0.1-0.6,0.2-0.9,0.4v8.7H263.7z"/>
			<path d="M283.4,112.9l-0.3-1c-0.6,0.4-1.2,0.7-1.8,0.9s-1.2,0.3-1.8,0.3c-1.3,0-2.2-0.5-2.9-1.5c-0.7-1-1-2.4-1-4.3
				c0-1.4,0.2-2.6,0.6-3.5s1-1.6,1.8-2.1s1.8-0.7,3.1-0.7c0.3,0,0.7,0,1,0c0.4,0,0.7,0.1,1,0.2v-4.3h2.9v16H283.4z M283,109.9v-6.5
				c-0.4-0.1-0.7-0.2-1-0.2c-0.3,0-0.6-0.1-0.9-0.1c-0.6,0-1.1,0.1-1.5,0.4c-0.4,0.2-0.7,0.7-0.9,1.2c-0.2,0.6-0.3,1.3-0.3,2.3
				c0,0.8,0.1,1.5,0.2,2.1c0.2,0.5,0.4,1,0.7,1.2s0.7,0.4,1.1,0.4c0.3,0,0.5,0,0.8-0.1c0.3-0.1,0.5-0.1,0.8-0.3
				C282.4,110.2,282.7,110,283,109.9z"/>
			<path d="M289.6,99.5c-0.6,0-1-0.1-1.3-0.4c-0.3-0.2-0.4-0.6-0.4-1.1c0-0.5,0.1-0.9,0.4-1.1c0.3-0.2,0.7-0.3,1.3-0.3
				c0.6,0,1,0.1,1.3,0.3c0.3,0.2,0.4,0.6,0.4,1.1c0,0.5-0.1,0.9-0.4,1.1C290.6,99.4,290.2,99.5,289.6,99.5z M288.2,112.8v-11.7h2.9
				v11.7H288.2z"/>
			<path d="M300.7,112.9l-0.3-1c-0.6,0.4-1.2,0.7-1.8,0.9s-1.2,0.3-1.8,0.3c-1.3,0-2.2-0.5-2.9-1.5c-0.7-1-1-2.4-1-4.3
				c0-1.4,0.2-2.6,0.6-3.5s1-1.6,1.8-2.1s1.8-0.7,3.1-0.7c0.3,0,0.7,0,1,0c0.4,0,0.7,0.1,1,0.2v-4.3h2.9v16H300.7z M300.4,109.9
				v-6.5c-0.4-0.1-0.7-0.2-1-0.2c-0.3,0-0.6-0.1-0.9-0.1c-0.6,0-1.1,0.1-1.5,0.4c-0.4,0.2-0.7,0.7-0.9,1.2c-0.2,0.6-0.3,1.3-0.3,2.3
				c0,0.8,0.1,1.5,0.2,2.1c0.2,0.5,0.4,1,0.7,1.2s0.7,0.4,1.1,0.4c0.3,0,0.5,0,0.8-0.1c0.3-0.1,0.5-0.1,0.8-0.3
				C299.8,110.2,300,110,300.4,109.9z"/>
			<path d="M304.7,109.8c0-0.7,0.1-1.3,0.4-1.8c0.3-0.5,0.7-0.8,1.3-1.1s1.3-0.5,2.1-0.6s1.9-0.3,3-0.4v-1.1c0-0.5-0.2-0.9-0.6-1.2
				s-1-0.4-1.7-0.4c-0.3,0-0.6,0-1,0c-0.4,0-0.8,0.1-1.2,0.2c-0.4,0.1-0.8,0.2-1.2,0.3l-0.5-2.3c0.6-0.2,1.3-0.4,2.1-0.5
				c0.7-0.1,1.4-0.2,2-0.2c1.1,0,2.1,0.1,2.8,0.4s1.3,0.7,1.6,1.3c0.4,0.6,0.5,1.3,0.5,2.2v4.7c0,0.4,0.1,0.7,0.2,0.8
				s0.3,0.2,0.4,0.2c0.1,0,0.2,0,0.3,0s0.2,0,0.3-0.1l0.2,2.1c-0.2,0.1-0.5,0.3-0.8,0.4c-0.3,0.1-0.7,0.1-1,0.1
				c-0.6,0-1-0.1-1.4-0.4c-0.3-0.2-0.6-0.6-0.8-1.1c-0.4,0.3-0.7,0.5-1.1,0.7s-0.8,0.4-1.3,0.5c-0.5,0.1-1,0.2-1.5,0.2
				c-0.5,0-0.9-0.1-1.3-0.2c-0.4-0.1-0.7-0.4-1-0.6c-0.3-0.3-0.5-0.6-0.6-1C304.8,110.8,304.7,110.3,304.7,109.8z M307.7,109.6
				c0,0.5,0.1,0.9,0.4,1.1s0.6,0.4,1,0.4c0.3,0,0.6-0.1,0.9-0.2c0.3-0.1,0.6-0.2,0.9-0.4s0.6-0.4,0.8-0.6v-2.4
				c-0.6,0-1.2,0.1-1.7,0.2s-0.9,0.2-1.2,0.3c-0.3,0.1-0.6,0.3-0.8,0.6C307.8,108.9,307.7,109.2,307.7,109.6z"/>
			<path d="M321,113.1c-0.7,0-1.4-0.1-1.9-0.4c-0.5-0.3-0.9-0.7-1.1-1.3s-0.4-1.3-0.4-2.3v-5.8h-1.8v-1.9l1.8-0.2l0.3-2.6h2.5v2.6
				h3.3v2.1h-3.3v5.5c0,0.7,0.1,1.1,0.4,1.4c0.2,0.3,0.6,0.4,1.1,0.4c0.3,0,0.6,0,0.9-0.1c0.3-0.1,0.6-0.1,1-0.2l0.4,2.2
				c-0.6,0.2-1.1,0.3-1.7,0.4C322,113,321.4,113.1,321,113.1z"/>
			<path d="M330.1,113.1c-0.9,0-1.7-0.1-2.3-0.3s-1.2-0.6-1.7-1s-0.8-1.1-1.1-1.8c-0.2-0.7-0.4-1.6-0.4-2.6c0-1.2,0.1-2.2,0.4-3
				c0.3-0.8,0.7-1.5,1.2-2s1.1-0.9,1.8-1.1c0.7-0.2,1.4-0.3,2.3-0.3c1.6,0,2.8,0.4,3.6,1.2c0.8,0.8,1.2,2.2,1.2,4c0,0.1,0,0.3,0,0.5
				s0,0.4,0,0.6c-0.3,0-0.8,0.1-1.3,0.1c-0.5,0-1.1,0.1-1.7,0.1c-0.6,0-1.3,0.1-2.1,0.1c-0.7,0-1.5,0.1-2.3,0.1c0,0,0,0.1,0,0.2
				c0,0.1,0,0.1,0,0.2c0,0.7,0.1,1.2,0.3,1.6c0.2,0.4,0.6,0.7,1,0.9s1,0.3,1.7,0.3c0.4,0,0.9,0,1.3-0.1c0.5-0.1,0.9-0.1,1.4-0.2
				c0.5-0.1,0.9-0.2,1.3-0.3l0.3,2.1c-0.5,0.1-1,0.3-1.5,0.4c-0.5,0.1-1.1,0.2-1.6,0.2S330.8,113.1,330.1,113.1z M327.7,105.8
				c0.5,0,1,0,1.5,0c0.5,0,0.9,0,1.3-0.1s0.8,0,1.1-0.1s0.5,0,0.7-0.1c0-0.6-0.1-1.1-0.2-1.5c-0.2-0.4-0.4-0.7-0.7-0.8
				c-0.3-0.2-0.7-0.3-1.2-0.3c-0.3,0-0.6,0-0.8,0.1s-0.5,0.2-0.8,0.5c-0.2,0.2-0.4,0.5-0.6,0.9S327.7,105.3,327.7,105.8z"/>
			<path d="M343.3,112.8v-2.3h4.3v-9.6l-4,1.8l-0.6-2.4l6.1-2.6h1.5v12.8h3.7v2.3H343.3z"/>
		</g>
	</g>
	<g id="cand1_00000011711539426293931580000002088214723144697476_">
		<path class="st7" d="M109.6,12.2c0,0,0.7-0.7,1.9-1c1.2-0.3,2.8-1.2,4.4-1.3c1.7-0.1-0.3-0.2,2.3,0.7c2.6,0.9,1.9-0.8,2.9-0.8
			s3.7-0.3,4.6,0.3s0.5,0.3,2.3,1.4c1.8,1.1,2.3,1.3,2.6,1.3s3.6,3.3,4,3.7c0.4,0.3,1,1,1.1,2.2c0.1,1.1,1.3,4.7,1.3,5.7
			s0.8,2.9,0.4,3.6c-0.3,0.7,2.1,1.2,2.2,2.4c0.1,1.2,0.5,2.7,0.1,3.9s-0.7,2.8-0.7,3.5s-0.2,1.4,0,2.2s0.6,1.8,0.3,2.3
			c-0.3,0.6-1.6,1.4-2.2,1c-0.6-0.3-0.1,4.9-0.3,5.7s0.6,0,1.5,0.9s2.3,2.9,2.4,4.9c0.2,2,1.9,4,2.2,4s0.5,1.6,0.5,1.6
			s-0.2-0.3,1.8,0.1c2,0.4,5.5,2.3,7.1,2.7s1.9,0,3.1,1s2.3,0.3,3.2,0.6c1,0.3,1.2,0.3,1.2,0.3l0.5,0.6c0,0,1.8,0.2,3.2,0.2
			s3.6,1.6,5.2,2c1.6,0.4,1.9,1.4,3.4,2s3.2,5.2,4.4,6.1s1.5,2.7,1.5,3.3c0,0.6-0.4,1.4-0.4,1.4s0.7,4.2,1,6.3c0.3,2.1,1,3.6,1,5.2
			c0.2,4.1,0.2,5.3,0.6,10.2c0.2,2,0.3-0.4,0.3,0.1c0,0.4-0.4,11.7-0.5,12.5s-0.5,6.4-1,7.3s-1.3,3.9-1.3,3.9s-2,5.1-2.5,5.8
			s-2.1,3.7-2.2,4c-0.1,0.3-0.2,1.3-1.5,1.6s-1.9,0.8-3.8,0.4s-3.2-1.4-3.2-1.4l-1,0.8c0,0-0.2,17.4,0,18.1
			c0.2,0.7,0.8,15.4,0.8,16.2s-80.5,0.2-80.5,0.2s0.9-13,1.2-14.4c0.3-1.4,0.1-12.7,0.8-13.6c0.7-0.9,0.5-2.9,0.5-2.9
			s-1.9-0.5-2.3-0.6c-0.3-0.1-2.5,0.1-2.8,0.1s-1.4,0.2-1.9-0.8s-1-1.6-1.7-2.3c-0.6-0.8-3.1-2.5-3.1-4.4c-0.1-1.8-0.5-3.4-0.5-3.4
			s-0.7-2.5-0.8-3.5c-0.1-1-0.4-5.9-0.8-7.1c-0.3-1.2,0.1-20.3,0.5-22.7C74,93.9,75,91.7,75,91s-0.4-2.5,0.3-4
			c0.7-1.5,1.4-3,1.5-4.2c0,0,0.7-2.7,1.5-3.9c0.8-1.1,0.8-1.5,1.3-2s1.1-1,1.6-2.3c0.4-1.3,0.5-1.6,1-1.8c0.4-0.3,2-0.8,3-1.6
			c1-0.8,2.3-3,3.9-2.6c1.7,0.3,3.2-0.5,3.2-0.5s1.8-0.1,2.1-0.2c0.3-0.1,1.8-1.3,2.7-1.7c0.9-0.3,2.7,0,3.1-0.2
			c0.3-0.2,1.3-1.3,2.9-2.2c1.6-0.9,3.3-1.6,3.3-1.6s1.5-4.7,1.8-5.5s0.3-0.8,0.3-0.8s-2.5-4.4-2.5-5.3c0-0.9-0.3-1.8-0.3-1.8
			s-2.1-0.1-2.4-2.3c-0.3-2.3-1.9-4.1-2.1-4.5s-1-0.9-0.9-2.7c0.2-1.8-0.2-3.5,0-4s-0.2-3.2-1-7.2c-0.8-3.9,1.7-7,2.2-7.9
			s1.1-2,1.4-2.4s3.9-4,4.2-4.4C107.4,12.9,109.6,12.2,109.6,12.2z"/>
		
			<image style="overflow:visible;enable-background:new    ;" width="343" height="510" xlink:href="cand-selection.png"  transform="matrix(0.3134 0 0 0.3134 69.4708 12.0866)">
		</image>
	</g>
</g>
<g id="cand3-group">
	<g id="Bar3">
		<rect id="bar31" x="69.5" y="566.9" class="st4" width="94.6" height="20"/>
		<rect id="bar32" x="163.9" y="566.9" class="st5" width="38.9" height="20"/>
		<rect id="bar33" x="202.4" y="566.9" class="st6" width="27.2" height="20"/>
	</g>
	<g id="cand3">
		<path class="st7" d="M109.6,408.2c0,0,0.7-0.7,1.9-1c1.2-0.3,2.8-1.2,4.4-1.3c1.7-0.1-0.3-0.2,2.3,0.7c2.6,0.9,1.9-0.8,2.9-0.8
			s3.7-0.3,4.6,0.3c1,0.6,0.5,0.3,2.3,1.4c1.8,1.1,2.3,1.3,2.6,1.3s3.6,3.3,4,3.7c0.4,0.3,1,1,1.1,2.2c0.1,1.1,1.3,4.7,1.3,5.7
			s0.8,2.9,0.4,3.6s2.1,1.2,2.2,2.4c0.1,1.2,0.5,2.7,0.1,3.9s-0.7,2.8-0.7,3.5s-0.2,1.4,0,2.2c0.2,0.8,0.6,1.8,0.3,2.3
			c-0.3,0.6-1.6,1.4-2.2,1c-0.6-0.3-0.1,4.9-0.3,5.7c-0.2,0.8,0.6,0,1.5,0.9s2.3,2.9,2.4,4.9c0.2,2,1.9,4,2.2,4s0.5,1.6,0.5,1.6
			s-0.2-0.3,1.8,0.1s5.5,2.3,7.1,2.7c1.6,0.4,1.9,0,3.1,1c1.2,1,2.3,0.3,3.2,0.6c1,0.3,1.2,0.3,1.2,0.3l0.5,0.6c0,0,1.8,0.2,3.2,0.2
			s3.6,1.6,5.2,2c1.6,0.4,1.9,1.4,3.4,2s3.2,5.2,4.4,6.1s1.5,2.7,1.5,3.3c0,0.6-0.4,1.4-0.4,1.4s0.7,4.2,1,6.3c0.3,2.1,1,3.6,1,5.2
			c0.2,4.1,0.2,5.3,0.6,10.2c0.2,2,0.3-0.4,0.3,0.1s-0.4,11.7-0.5,12.5s-0.5,6.4-1,7.3s-1.3,3.9-1.3,3.9s-2,5.1-2.5,5.8
			s-2.1,3.7-2.2,4s-0.2,1.3-1.5,1.6s-1.9,0.8-3.8,0.4s-3.2-1.4-3.2-1.4l-1,0.8c0,0-0.2,17.4,0,18.1c0.2,0.7,0.8,15.4,0.8,16.2
			s-80.5,0.2-80.5,0.2s0.9-13,1.2-14.4c0.3-1.4,0.1-12.7,0.8-13.6c0.7-0.9,0.5-2.9,0.5-2.9s-1.9-0.5-2.3-0.6
			c-0.3-0.1-2.5,0.1-2.8,0.1s-1.4,0.2-1.9-0.8s-1-1.6-1.7-2.3c-0.6-0.8-3.1-2.5-3.1-4.4c-0.1-1.8-0.5-3.4-0.5-3.4s-0.7-2.5-0.8-3.5
			c-0.1-1-0.4-5.9-0.8-7.1c-0.3-1.2,0.1-20.3,0.5-22.7c0.4-2.3,1.4-4.5,1.4-5.2s-0.4-2.5,0.3-4c0.7-1.5,1.4-3,1.5-4.2
			c0,0,0.7-2.7,1.5-3.9c0.8-1.1,0.8-1.5,1.3-2s1.1-1,1.6-2.3c0.4-1.3,0.5-1.6,1-1.8c0.4-0.3,2-0.8,3-1.6s2.3-3,3.9-2.6
			c1.7,0.3,3.2-0.5,3.2-0.5s1.8-0.1,2.1-0.2c0.3-0.1,1.8-1.3,2.7-1.7c0.9-0.3,2.7,0,3.1-0.2c0.3-0.2,1.3-1.3,2.9-2.2
			c1.6-0.9,3.3-1.6,3.3-1.6s1.5-4.7,1.8-5.5s0.3-0.8,0.3-0.8s-2.5-4.4-2.5-5.3s-0.3-1.8-0.3-1.8s-2.1-0.1-2.4-2.3
			c-0.3-2.3-1.9-4.1-2.1-4.5s-1-0.9-0.9-2.7c0.2-1.8-0.2-3.5,0-4s-0.2-3.2-1-7.2c-0.8-3.9,1.7-7,2.2-7.9s1.1-2,1.4-2.4
			s3.9-4,4.2-4.4C107.4,408.9,109.6,408.2,109.6,408.2z"/>
		
			<image style="overflow:visible;enable-background:new    ;" width="343" height="510" xlink:href="cand-selection.png"  transform="matrix(0.3134 0 0 0.3134 69.4708 408.1154)">
		</image>
	</g>
	<g id="candtxt3">
		<path d="M238.5,495.5c0-1.9,0.3-3.4,0.8-4.6c0.5-1.2,1.3-2,2.4-2.6c1.1-0.5,2.4-0.8,3.9-0.8c0.5,0,0.9,0,1.3,0
			c0.4,0,0.8,0.1,1.1,0.1c0.4,0.1,0.7,0.1,1,0.2s0.7,0.2,1,0.3l-0.6,2.4c-0.4-0.1-0.8-0.2-1.2-0.3c-0.4-0.1-0.8-0.1-1.2-0.1
			c-0.4,0-0.8,0-1.2,0c-0.7,0-1.4,0.1-2,0.3c-0.6,0.2-1,0.5-1.4,0.9c-0.4,0.4-0.6,1-0.8,1.7s-0.3,1.6-0.3,2.6c0,0.9,0.1,1.7,0.3,2.4
			c0.2,0.6,0.4,1.2,0.8,1.6c0.4,0.4,0.8,0.7,1.3,0.9c0.5,0.2,1.2,0.3,1.9,0.3c0.7,0,1.4,0,2.1-0.1c0.7-0.1,1.4-0.2,2-0.4l0.5,2.3
			c-0.3,0.1-0.7,0.2-1.1,0.3c-0.4,0.1-0.8,0.2-1.2,0.2c-0.4,0.1-0.9,0.1-1.3,0.1c-0.5,0-1,0.1-1.5,0.1c-1.1,0-2.1-0.1-2.9-0.4
			s-1.6-0.7-2.1-1.3c-0.6-0.6-1-1.4-1.3-2.3C238.7,498.1,238.5,496.9,238.5,495.5z"/>
		<path d="M251.4,499.8c0-0.7,0.1-1.3,0.4-1.8c0.3-0.5,0.7-0.8,1.3-1.1c0.6-0.3,1.3-0.5,2.1-0.6s1.9-0.3,3-0.4v-1.1
			c0-0.5-0.2-0.9-0.6-1.2s-1-0.4-1.7-0.4c-0.3,0-0.6,0-1,0c-0.4,0-0.8,0.1-1.2,0.2c-0.4,0.1-0.8,0.2-1.2,0.3l-0.5-2.3
			c0.6-0.2,1.3-0.4,2.1-0.5c0.7-0.1,1.4-0.2,2-0.2c1.1,0,2.1,0.1,2.8,0.4s1.3,0.7,1.6,1.3c0.4,0.6,0.5,1.3,0.5,2.2v4.7
			c0,0.4,0.1,0.7,0.2,0.8c0.1,0.1,0.3,0.2,0.4,0.2c0.1,0,0.2,0,0.3,0c0.1,0,0.2,0,0.3-0.1l0.2,2.1c-0.2,0.1-0.5,0.3-0.8,0.4
			s-0.7,0.1-1,0.1c-0.6,0-1-0.1-1.4-0.4c-0.3-0.2-0.6-0.6-0.8-1.1c-0.4,0.3-0.7,0.5-1.1,0.7s-0.8,0.4-1.3,0.5
			c-0.5,0.1-1,0.2-1.5,0.2c-0.5,0-0.9-0.1-1.3-0.2c-0.4-0.1-0.7-0.4-1-0.6c-0.3-0.3-0.5-0.6-0.6-1
			C251.5,500.8,251.4,500.3,251.4,499.8z M254.3,499.6c0,0.5,0.1,0.9,0.4,1.1s0.6,0.4,1,0.4c0.3,0,0.6-0.1,0.9-0.2
			c0.3-0.1,0.6-0.2,0.9-0.4c0.3-0.2,0.6-0.4,0.8-0.6v-2.4c-0.6,0-1.2,0.1-1.7,0.2c-0.5,0.1-0.9,0.2-1.2,0.3
			c-0.3,0.1-0.6,0.3-0.8,0.6C254.4,498.9,254.3,499.2,254.3,499.6z"/>
		<path d="M263.7,502.8v-11.7h2.6v1c0.5-0.3,0.9-0.5,1.4-0.7c0.4-0.2,0.9-0.3,1.3-0.4c0.4-0.1,0.9-0.1,1.3-0.1
			c0.7,0,1.4,0.1,1.9,0.4c0.5,0.3,0.9,0.6,1.1,1.1c0.2,0.5,0.4,1.1,0.4,1.8v8.6h-2.9v-7.7c0-0.6-0.1-1.1-0.4-1.3
			c-0.3-0.3-0.7-0.4-1.3-0.4c-0.3,0-0.6,0-0.8,0.1s-0.5,0.1-0.8,0.2c-0.3,0.1-0.6,0.2-0.9,0.4v8.7H263.7z"/>
		<path d="M283.4,502.9l-0.3-0.9c-0.6,0.4-1.2,0.7-1.8,0.9s-1.2,0.3-1.8,0.3c-1.3,0-2.2-0.5-2.9-1.5c-0.7-1-1-2.4-1-4.3
			c0-1.4,0.2-2.6,0.6-3.5s1-1.6,1.8-2.1s1.8-0.7,3.1-0.7c0.3,0,0.7,0,1,0s0.7,0.1,1,0.2v-4.3h2.9v16H283.4z M283,499.9v-6.5
			c-0.4-0.1-0.7-0.2-1-0.2c-0.3,0-0.6-0.1-0.9-0.1c-0.6,0-1.1,0.1-1.5,0.4c-0.4,0.2-0.7,0.7-0.9,1.2c-0.2,0.6-0.3,1.3-0.3,2.3
			c0,0.8,0.1,1.5,0.2,2.1c0.2,0.5,0.4,1,0.7,1.2s0.7,0.4,1.1,0.4c0.3,0,0.5,0,0.8-0.1c0.3-0.1,0.5-0.1,0.8-0.3
			C282.4,500.2,282.7,500,283,499.9z"/>
		<path d="M289.6,489.5c-0.6,0-1-0.1-1.3-0.4c-0.3-0.2-0.4-0.6-0.4-1.1c0-0.5,0.1-0.9,0.4-1.1c0.3-0.2,0.7-0.3,1.3-0.3
			c0.6,0,1,0.1,1.3,0.3c0.3,0.2,0.4,0.6,0.4,1.1c0,0.5-0.1,0.9-0.4,1.1C290.6,489.4,290.2,489.5,289.6,489.5z M288.2,502.8v-11.7
			h2.9v11.7H288.2z"/>
		<path d="M300.7,502.9l-0.3-0.9c-0.6,0.4-1.2,0.7-1.8,0.9s-1.2,0.3-1.8,0.3c-1.3,0-2.2-0.5-2.9-1.5c-0.7-1-1-2.4-1-4.3
			c0-1.4,0.2-2.6,0.6-3.5s1-1.6,1.8-2.1s1.8-0.7,3.1-0.7c0.3,0,0.7,0,1,0s0.7,0.1,1,0.2v-4.3h2.9v16H300.7z M300.4,499.9v-6.5
			c-0.4-0.1-0.7-0.2-1-0.2c-0.3,0-0.6-0.1-0.9-0.1c-0.6,0-1.1,0.1-1.5,0.4c-0.4,0.2-0.7,0.7-0.9,1.2c-0.2,0.6-0.3,1.3-0.3,2.3
			c0,0.8,0.1,1.5,0.2,2.1c0.2,0.5,0.4,1,0.7,1.2s0.7,0.4,1.1,0.4c0.3,0,0.5,0,0.8-0.1c0.3-0.1,0.5-0.1,0.8-0.3
			C299.8,500.2,300,500,300.4,499.9z"/>
		<path d="M304.7,499.8c0-0.7,0.1-1.3,0.4-1.8c0.3-0.5,0.7-0.8,1.3-1.1c0.6-0.3,1.3-0.5,2.1-0.6s1.9-0.3,3-0.4v-1.1
			c0-0.5-0.2-0.9-0.6-1.2s-1-0.4-1.7-0.4c-0.3,0-0.6,0-1,0c-0.4,0-0.8,0.1-1.2,0.2c-0.4,0.1-0.8,0.2-1.2,0.3l-0.5-2.3
			c0.6-0.2,1.3-0.4,2.1-0.5c0.7-0.1,1.4-0.2,2-0.2c1.1,0,2.1,0.1,2.8,0.4s1.3,0.7,1.6,1.3c0.4,0.6,0.5,1.3,0.5,2.2v4.7
			c0,0.4,0.1,0.7,0.2,0.8c0.1,0.1,0.3,0.2,0.4,0.2c0.1,0,0.2,0,0.3,0c0.1,0,0.2,0,0.3-0.1l0.2,2.1c-0.2,0.1-0.5,0.3-0.8,0.4
			s-0.7,0.1-1,0.1c-0.6,0-1-0.1-1.4-0.4c-0.3-0.2-0.6-0.6-0.8-1.1c-0.4,0.3-0.7,0.5-1.1,0.7s-0.8,0.4-1.3,0.5
			c-0.5,0.1-1,0.2-1.5,0.2c-0.5,0-0.9-0.1-1.3-0.2c-0.4-0.1-0.7-0.4-1-0.6c-0.3-0.3-0.5-0.6-0.6-1
			C304.8,500.8,304.7,500.3,304.7,499.8z M307.7,499.6c0,0.5,0.1,0.9,0.4,1.1s0.6,0.4,1,0.4c0.3,0,0.6-0.1,0.9-0.2
			c0.3-0.1,0.6-0.2,0.9-0.4c0.3-0.2,0.6-0.4,0.8-0.6v-2.4c-0.6,0-1.2,0.1-1.7,0.2c-0.5,0.1-0.9,0.2-1.2,0.3
			c-0.3,0.1-0.6,0.3-0.8,0.6C307.8,498.9,307.7,499.2,307.7,499.6z"/>
		<path d="M321,503.1c-0.7,0-1.4-0.1-1.9-0.4c-0.5-0.3-0.9-0.7-1.1-1.3c-0.3-0.6-0.4-1.3-0.4-2.3v-5.8h-1.8v-1.9l1.8-0.2l0.3-2.6
			h2.5v2.6h3.3v2.1h-3.3v5.5c0,0.7,0.1,1.1,0.4,1.4c0.2,0.3,0.6,0.4,1.1,0.4c0.3,0,0.6,0,0.9-0.1c0.3-0.1,0.6-0.1,1-0.2l0.4,2.2
			c-0.6,0.2-1.1,0.3-1.7,0.4C322,503,321.4,503.1,321,503.1z"/>
		<path d="M330.1,503.1c-0.9,0-1.7-0.1-2.3-0.3s-1.2-0.6-1.7-1c-0.5-0.5-0.8-1.1-1.1-1.8c-0.2-0.7-0.4-1.6-0.4-2.6
			c0-1.2,0.1-2.2,0.4-3c0.3-0.8,0.7-1.5,1.2-2s1.1-0.9,1.8-1.1c0.7-0.2,1.4-0.3,2.3-0.3c1.6,0,2.8,0.4,3.6,1.2
			c0.8,0.8,1.2,2.2,1.2,4c0,0.1,0,0.3,0,0.5s0,0.4,0,0.6c-0.3,0-0.8,0.1-1.3,0.1s-1.1,0.1-1.7,0.1c-0.6,0-1.3,0.1-2.1,0.1
			c-0.7,0-1.5,0.1-2.3,0.1c0,0,0,0.1,0,0.2c0,0.1,0,0.1,0,0.2c0,0.7,0.1,1.2,0.3,1.6c0.2,0.4,0.6,0.7,1,0.9s1,0.3,1.7,0.3
			c0.4,0,0.9,0,1.3-0.1c0.5-0.1,0.9-0.1,1.4-0.2c0.5-0.1,0.9-0.2,1.3-0.3l0.3,2.1c-0.5,0.1-1,0.3-1.5,0.4c-0.5,0.1-1.1,0.2-1.6,0.2
			S330.8,503.1,330.1,503.1z M327.7,495.8c0.5,0,1,0,1.5,0s0.9,0,1.3-0.1s0.8,0,1.1-0.1s0.5,0,0.7-0.1c0-0.6-0.1-1.1-0.2-1.5
			c-0.2-0.4-0.4-0.7-0.7-0.8c-0.3-0.2-0.7-0.3-1.2-0.3c-0.3,0-0.6,0-0.8,0.1s-0.5,0.2-0.8,0.5c-0.2,0.2-0.4,0.5-0.6,0.9
			S327.7,495.3,327.7,495.8z"/>
		<path d="M342.3,501.8l0.8-2.1c0.4,0.2,0.8,0.3,1.3,0.5c0.4,0.1,0.9,0.2,1.4,0.3s1,0.1,1.6,0.1c0.8,0,1.4-0.1,1.9-0.3
			c0.5-0.2,0.9-0.5,1.2-0.8s0.4-0.8,0.4-1.3c0-0.7-0.3-1.2-0.9-1.6c-0.6-0.3-1.4-0.5-2.5-0.5h-2.2V494h2.4c0.6,0,1.1-0.1,1.5-0.2
			c0.4-0.2,0.7-0.4,0.9-0.7s0.3-0.6,0.3-1c0-0.6-0.3-1.1-0.8-1.5c-0.5-0.4-1.3-0.5-2.3-0.5c-0.6,0-1.3,0.1-1.9,0.2
			c-0.7,0.1-1.3,0.3-2,0.7l-0.7-2.3c0.4-0.2,0.9-0.4,1.4-0.6c0.5-0.2,1.1-0.3,1.7-0.4c0.6-0.1,1.3-0.1,2-0.1c1.1,0,2.1,0.2,2.9,0.5
			c0.8,0.3,1.4,0.8,1.9,1.3s0.7,1.3,0.7,2.1c0,0.8-0.2,1.5-0.6,2.1c-0.4,0.6-1,1-1.8,1.3c1,0.2,1.7,0.7,2.2,1.3
			c0.5,0.6,0.7,1.4,0.7,2.3c0,1-0.2,1.8-0.7,2.5c-0.5,0.7-1.2,1.2-2.1,1.6c-0.9,0.4-2,0.6-3.3,0.6c-0.7,0-1.4,0-2-0.1
			s-1.2-0.2-1.7-0.4S342.8,502.1,342.3,501.8z"/>
	</g>
	<g id="eliminated3">
		<g>
			<g>
				<path class="st8" d="M366.5,503.3l-142.2,23.3l-7.2-44l142.2-23.3L366.5,503.3z M227,522.9l135.8-22.2l-6.2-37.6l-135.7,22.2
					L227,522.9z"/>
			</g>
			<g>
				<path class="st8" d="M234.8,512.2l-3-17.4l10.7-1.8l0.6,3.6l-7.1,1.2l0.6,3.3l6.6-1.1l0.6,3.4l-6.6,1.1l0.6,3.6l7.5-1.3l0.6,3.6
					L234.8,512.2z"/>
				<path class="st8" d="M247.6,510l-3-17.4l3.6-0.6l2.4,13.7l6.7-1.2l0.6,3.7L247.6,510z"/>
				<path class="st8" d="M259.4,508l-3-17.4l3.6-0.6l3,17.4L259.4,508z"/>
				<path class="st8" d="M265.4,507l-3-17.4l3.8-0.6l5,7.6l2.2-8.8l3.6-0.6l3,17.4l-3.3,0.6l-1.9-11.2l-1.9,7.7l-1.7,0.3l-4.3-6.5
					l1.9,11.2L265.4,507z"/>
				<path class="st8" d="M282.3,504l-3-17.4l3.6-0.6l3,17.4L282.3,504z"/>
				<path class="st8" d="M288.2,503l-3-17.4l3.4-0.6l7.5,10l-1.9-10.9l3.2-0.6l3,17.4l-3.4,0.6l-7.5-9.7l1.8,10.7L288.2,503z"/>
				<path class="st8" d="M301.8,500.7l1.7-18.3l4.3-0.7l7.8,16.6l-4,0.7l-1.3-3.1l-4.6,0.8l-0.2,3.4L301.8,500.7z M305.9,493.1
					l3.2-0.6l-2.9-7.2L305.9,493.1z"/>
				<path class="st8" d="M324.7,482.7l-4.4,0.8l2.4,13.7l-3.6,0.6l-2.4-13.7l-4.4,0.8l-0.6-3.7l12.4-2.1L324.7,482.7z"/>
				<path class="st8" d="M328.5,496.1l-3-17.4l10.7-1.8l0.6,3.6l-7.1,1.2l0.6,3.3l6.6-1.1l0.6,3.4l-6.6,1.1l0.6,3.6l7.5-1.3l0.6,3.6
					L328.5,496.1z"/>
				<path class="st8" d="M347.1,493.1c-0.7,0.1-1.4,0.2-2.1,0.3c-0.7,0.1-1.3,0.2-1.9,0.2s-1.2,0.1-1.8,0.2l-3-17.4
					c0.7-0.2,1.3-0.3,1.9-0.5c0.6-0.1,1.2-0.3,1.8-0.4c0.6-0.1,1.2-0.2,1.9-0.4c1.7-0.3,3.2-0.2,4.4,0.2c1.2,0.4,2.1,1.3,2.9,2.5
					c0.7,1.2,1.3,2.9,1.6,5c0.4,2.1,0.4,3.8,0.1,5.2c-0.3,1.4-0.9,2.5-1.9,3.3C350,492.3,348.7,492.9,347.1,493.1z M346.8,489.8
					c0.7-0.1,1.2-0.4,1.6-0.9s0.6-1.1,0.7-2s0-2-0.2-3.3c-0.2-1.4-0.6-2.5-0.9-3.3c-0.4-0.8-0.8-1.3-1.4-1.6
					c-0.5-0.3-1.2-0.3-1.9-0.2c-0.3,0-0.5,0.1-0.8,0.1c-0.3,0.1-0.5,0.1-0.8,0.2s-0.5,0.1-0.7,0.2l1.9,11.1c0.2,0,0.4-0.1,0.6-0.1
					s0.4,0,0.6-0.1s0.4-0.1,0.6-0.1S346.6,489.8,346.8,489.8z"/>
			</g>
		</g>
	</g>
</g>
<g id="cand2-group">
	<g id="Bar2">
		<rect id="bar21" x="69.5" y="368.6" class="st4" width="152.8" height="20"/>
		<rect id="bar22" x="222" y="368.6" class="st5" width="55.6" height="20"/>
		<rect id="bar23" x="276.8" y="368.6" class="st6" width="33.2" height="20"/>
	</g>
	<g id="cand2">
		<path class="st7" d="M109.6,210.3c0,0,0.7-0.7,1.9-1c1.2-0.3,2.8-1.2,4.4-1.3c1.7-0.1-0.3-0.2,2.3,0.7c2.6,0.9,1.9-0.8,2.9-0.8
			s3.7-0.3,4.6,0.3s0.5,0.3,2.3,1.4c1.8,1.1,2.3,1.3,2.6,1.3s3.6,3.3,4,3.7c0.4,0.3,1,1,1.1,2.2c0.1,1.1,1.3,4.7,1.3,5.7
			s0.8,2.9,0.4,3.6c-0.3,0.7,2.1,1.2,2.2,2.4c0.1,1.2,0.5,2.7,0.1,3.9s-0.7,2.8-0.7,3.5s-0.2,1.4,0,2.2s0.6,1.8,0.3,2.3
			c-0.3,0.6-1.6,1.4-2.2,1c-0.6-0.3-0.1,4.9-0.3,5.7s0.6,0,1.5,0.9s2.3,2.9,2.4,4.9c0.2,2,1.9,4,2.2,4s0.5,1.6,0.5,1.6
			s-0.2-0.3,1.8,0.1s5.5,2.3,7.1,2.7c1.6,0.3,1.9,0,3.1,1c1.2,1,2.3,0.3,3.2,0.6c1,0.3,1.2,0.3,1.2,0.3l0.5,0.6c0,0,1.8,0.2,3.2,0.2
			s3.6,1.6,5.2,2c1.6,0.4,1.9,1.4,3.4,2s3.2,5.2,4.4,6.1s1.5,2.7,1.5,3.3c0,0.6-0.4,1.4-0.4,1.4s0.7,4.2,1,6.3c0.3,2.1,1,3.6,1,5.2
			c0.2,4.1,0.2,5.3,0.6,10.2c0.2,2,0.3-0.4,0.3,0.1s-0.4,11.7-0.5,12.5s-0.5,6.4-1,7.3s-1.3,3.9-1.3,3.9s-2,5.1-2.5,5.8
			c-0.5,0.7-2.1,3.7-2.2,4c-0.1,0.3-0.2,1.3-1.5,1.6c-1.3,0.3-1.9,0.8-3.8,0.4c-1.8-0.3-3.2-1.4-3.2-1.4l-1,0.8c0,0-0.2,17.4,0,18.1
			s0.8,15.4,0.8,16.2S83.8,370,83.8,370s0.9-13,1.2-14.4c0.3-1.4,0.1-12.7,0.8-13.6c0.7-0.9,0.5-2.9,0.5-2.9s-1.9-0.5-2.3-0.6
			c-0.3-0.1-2.5,0.1-2.8,0.1s-1.4,0.2-1.9-0.8s-1-1.6-1.7-2.3c-0.6-0.8-3.1-2.5-3.1-4.4c-0.1-1.8-0.5-3.4-0.5-3.4s-0.7-2.5-0.8-3.5
			c-0.1-1-0.4-5.9-0.8-7.1s0.1-20.3,0.5-22.7c0.4-2.3,1.4-4.5,1.4-5.2s-0.4-2.5,0.3-4c0.7-1.5,1.4-3,1.5-4.2c0,0,0.7-2.7,1.5-3.9
			c0.8-1.1,0.8-1.5,1.3-2s1.1-1,1.6-2.3c0.4-1.3,0.5-1.6,1-1.8c0.4-0.3,2-0.8,3-1.6s2.3-3,3.9-2.6c1.7,0.3,3.2-0.5,3.2-0.5
			s1.8-0.1,2.1-0.2c0.3-0.1,1.8-1.3,2.7-1.7c0.9-0.3,2.7,0,3.1-0.2c0.3-0.2,1.3-1.3,2.9-2.2c1.6-0.9,3.3-1.6,3.3-1.6
			s1.5-4.7,1.8-5.5s0.3-0.8,0.3-0.8s-2.5-4.4-2.5-5.3S105,247,105,247s-2.1-0.1-2.4-2.3c-0.3-2.3-1.9-4.1-2.1-4.5s-1-0.9-0.9-2.7
			c0.2-1.8-0.2-3.5,0-4s-0.2-3.2-1-7.2c-0.8-3.9,1.7-7,2.2-7.9s1.1-2,1.4-2.4s3.9-4,4.2-4.4C107.4,211,109.6,210.3,109.6,210.3z"/>
		
			<image style="overflow:visible;enable-background:new    ;" width="343" height="510" xlink:href="cand-selection.png"  transform="matrix(0.3134 0 0 0.3134 69.4708 210.1587)">
		</image>
	</g>
	<g id="candtxt2">
		<path d="M238.5,295.5c0-1.9,0.3-3.4,0.8-4.6c0.5-1.2,1.3-2,2.4-2.6s2.4-0.8,3.9-0.8c0.5,0,0.9,0,1.3,0c0.4,0,0.8,0.1,1.1,0.1
			c0.4,0.1,0.7,0.1,1,0.2s0.7,0.2,1,0.3l-0.6,2.4c-0.4-0.1-0.8-0.2-1.2-0.3c-0.4-0.1-0.8-0.1-1.2-0.1c-0.4,0-0.8,0-1.2,0
			c-0.7,0-1.4,0.1-2,0.3c-0.6,0.2-1,0.5-1.4,0.9c-0.4,0.4-0.6,1-0.8,1.7c-0.2,0.7-0.3,1.6-0.3,2.6c0,1,0.1,1.7,0.3,2.4
			c0.2,0.6,0.4,1.2,0.8,1.6c0.4,0.4,0.8,0.7,1.3,0.9c0.5,0.2,1.2,0.3,1.9,0.3c0.7,0,1.4,0,2.1-0.1c0.7-0.1,1.4-0.2,2-0.4l0.5,2.3
			c-0.3,0.1-0.7,0.2-1.1,0.3c-0.4,0.1-0.8,0.2-1.2,0.2c-0.4,0.1-0.9,0.1-1.3,0.1c-0.5,0-1,0.1-1.5,0.1c-1.1,0-2.1-0.1-2.9-0.4
			s-1.6-0.7-2.1-1.3c-0.6-0.6-1-1.4-1.3-2.3S238.5,296.9,238.5,295.5z"/>
		<path d="M251.4,299.8c0-0.7,0.1-1.3,0.4-1.8c0.3-0.5,0.7-0.8,1.3-1.1s1.3-0.5,2.1-0.6s1.9-0.3,3-0.4v-1.1c0-0.5-0.2-0.9-0.6-1.2
			s-1-0.4-1.7-0.4c-0.3,0-0.6,0-1,0c-0.4,0-0.8,0.1-1.2,0.2c-0.4,0.1-0.8,0.2-1.2,0.3l-0.5-2.3c0.6-0.2,1.3-0.4,2.1-0.5
			c0.7-0.1,1.4-0.2,2-0.2c1.1,0,2.1,0.1,2.8,0.4s1.3,0.7,1.6,1.3c0.4,0.6,0.5,1.3,0.5,2.2v4.7c0,0.4,0.1,0.7,0.2,0.8
			s0.3,0.2,0.4,0.2c0.1,0,0.2,0,0.3,0s0.2,0,0.3-0.1l0.2,2.1c-0.2,0.1-0.5,0.3-0.8,0.4s-0.7,0.1-1,0.1c-0.6,0-1-0.1-1.4-0.4
			c-0.3-0.2-0.6-0.6-0.8-1.1c-0.4,0.3-0.7,0.5-1.1,0.7s-0.8,0.4-1.3,0.5c-0.5,0.1-1,0.2-1.5,0.2c-0.5,0-0.9-0.1-1.3-0.2
			c-0.4-0.1-0.7-0.4-1-0.6c-0.3-0.3-0.5-0.6-0.6-1C251.5,300.8,251.4,300.3,251.4,299.8z M254.3,299.6c0,0.5,0.1,0.9,0.4,1.1
			s0.6,0.4,1,0.4c0.3,0,0.6-0.1,0.9-0.2c0.3-0.1,0.6-0.2,0.9-0.4s0.6-0.4,0.8-0.6v-2.4c-0.6,0-1.2,0.1-1.7,0.2s-0.9,0.2-1.2,0.3
			c-0.3,0.1-0.6,0.3-0.8,0.6C254.4,298.9,254.3,299.2,254.3,299.6z"/>
		<path d="M263.7,302.8v-11.7h2.6v1c0.5-0.3,0.9-0.5,1.4-0.7s0.9-0.3,1.3-0.4c0.4-0.1,0.9-0.1,1.3-0.1c0.7,0,1.4,0.1,1.9,0.4
			c0.5,0.3,0.9,0.6,1.1,1.1c0.2,0.5,0.4,1.1,0.4,1.8v8.6h-2.9v-7.7c0-0.6-0.1-1.1-0.4-1.3c-0.3-0.3-0.7-0.4-1.3-0.4
			c-0.3,0-0.6,0-0.8,0.1c-0.3,0.1-0.5,0.1-0.8,0.2c-0.3,0.1-0.6,0.2-0.9,0.4v8.7H263.7z"/>
		<path d="M283.4,302.9l-0.3-0.9c-0.6,0.4-1.2,0.7-1.8,0.9s-1.2,0.3-1.8,0.3c-1.3,0-2.2-0.5-2.9-1.5c-0.7-1-1-2.4-1-4.3
			c0-1.4,0.2-2.6,0.6-3.5s1-1.6,1.8-2.1s1.8-0.7,3.1-0.7c0.3,0,0.7,0,1,0c0.4,0,0.7,0.1,1,0.2v-4.3h2.9v16H283.4z M283,299.9v-6.5
			c-0.4-0.1-0.7-0.2-1-0.2c-0.3,0-0.6-0.1-0.9-0.1c-0.6,0-1.1,0.1-1.5,0.4c-0.4,0.2-0.7,0.7-0.9,1.2c-0.2,0.6-0.3,1.3-0.3,2.3
			c0,0.8,0.1,1.5,0.2,2.1c0.2,0.5,0.4,1,0.7,1.2s0.7,0.4,1.1,0.4c0.3,0,0.5,0,0.8-0.1c0.3-0.1,0.5-0.1,0.8-0.3
			C282.4,300.2,282.7,300,283,299.9z"/>
		<path d="M289.6,289.5c-0.6,0-1-0.1-1.3-0.4c-0.3-0.2-0.4-0.6-0.4-1.1c0-0.5,0.1-0.9,0.4-1.1c0.3-0.2,0.7-0.3,1.3-0.3
			c0.6,0,1,0.1,1.3,0.3c0.3,0.2,0.4,0.6,0.4,1.1c0,0.5-0.1,0.9-0.4,1.1C290.6,289.4,290.2,289.5,289.6,289.5z M288.2,302.8v-11.7
			h2.9v11.7H288.2z"/>
		<path d="M300.7,302.9l-0.3-0.9c-0.6,0.4-1.2,0.7-1.8,0.9s-1.2,0.3-1.8,0.3c-1.3,0-2.2-0.5-2.9-1.5c-0.7-1-1-2.4-1-4.3
			c0-1.4,0.2-2.6,0.6-3.5s1-1.6,1.8-2.1s1.8-0.7,3.1-0.7c0.3,0,0.7,0,1,0c0.4,0,0.7,0.1,1,0.2v-4.3h2.9v16H300.7z M300.4,299.9v-6.5
			c-0.4-0.1-0.7-0.2-1-0.2c-0.3,0-0.6-0.1-0.9-0.1c-0.6,0-1.1,0.1-1.5,0.4c-0.4,0.2-0.7,0.7-0.9,1.2c-0.2,0.6-0.3,1.3-0.3,2.3
			c0,0.8,0.1,1.5,0.2,2.1c0.2,0.5,0.4,1,0.7,1.2s0.7,0.4,1.1,0.4c0.3,0,0.5,0,0.8-0.1c0.3-0.1,0.5-0.1,0.8-0.3
			C299.8,300.2,300,300,300.4,299.9z"/>
		<path d="M304.7,299.8c0-0.7,0.1-1.3,0.4-1.8c0.3-0.5,0.7-0.8,1.3-1.1s1.3-0.5,2.1-0.6s1.9-0.3,3-0.4v-1.1c0-0.5-0.2-0.9-0.6-1.2
			s-1-0.4-1.7-0.4c-0.3,0-0.6,0-1,0c-0.4,0-0.8,0.1-1.2,0.2c-0.4,0.1-0.8,0.2-1.2,0.3l-0.5-2.3c0.6-0.2,1.3-0.4,2.1-0.5
			c0.7-0.1,1.4-0.2,2-0.2c1.1,0,2.1,0.1,2.8,0.4s1.3,0.7,1.6,1.3c0.4,0.6,0.5,1.3,0.5,2.2v4.7c0,0.4,0.1,0.7,0.2,0.8
			s0.3,0.2,0.4,0.2c0.1,0,0.2,0,0.3,0s0.2,0,0.3-0.1l0.2,2.1c-0.2,0.1-0.5,0.3-0.8,0.4s-0.7,0.1-1,0.1c-0.6,0-1-0.1-1.4-0.4
			c-0.3-0.2-0.6-0.6-0.8-1.1c-0.4,0.3-0.7,0.5-1.1,0.7s-0.8,0.4-1.3,0.5c-0.5,0.1-1,0.2-1.5,0.2c-0.5,0-0.9-0.1-1.3-0.2
			c-0.4-0.1-0.7-0.4-1-0.6c-0.3-0.3-0.5-0.6-0.6-1C304.8,300.8,304.7,300.3,304.7,299.8z M307.7,299.6c0,0.5,0.1,0.9,0.4,1.1
			s0.6,0.4,1,0.4c0.3,0,0.6-0.1,0.9-0.2c0.3-0.1,0.6-0.2,0.9-0.4s0.6-0.4,0.8-0.6v-2.4c-0.6,0-1.2,0.1-1.7,0.2s-0.9,0.2-1.2,0.3
			c-0.3,0.1-0.6,0.3-0.8,0.6C307.8,298.9,307.7,299.2,307.7,299.6z"/>
		<path d="M321,303.1c-0.7,0-1.4-0.1-1.9-0.4c-0.5-0.3-0.9-0.7-1.1-1.3c-0.3-0.6-0.4-1.3-0.4-2.3v-5.8h-1.8v-1.9l1.8-0.2l0.3-2.6
			h2.5v2.6h3.3v2.1h-3.3v5.5c0,0.7,0.1,1.1,0.4,1.4c0.2,0.3,0.6,0.4,1.1,0.4c0.3,0,0.6,0,0.9-0.1c0.3-0.1,0.6-0.1,1-0.2l0.4,2.2
			c-0.6,0.2-1.1,0.3-1.7,0.4C322,303,321.4,303.1,321,303.1z"/>
		<path d="M330.1,303.1c-0.9,0-1.7-0.1-2.3-0.3s-1.2-0.6-1.7-1c-0.5-0.5-0.8-1.1-1.1-1.8c-0.2-0.7-0.4-1.6-0.4-2.6
			c0-1.2,0.1-2.2,0.4-3c0.3-0.8,0.7-1.5,1.2-2s1.1-0.9,1.8-1.1c0.7-0.2,1.4-0.3,2.3-0.3c1.6,0,2.8,0.4,3.6,1.2
			c0.8,0.8,1.2,2.2,1.2,4c0,0.1,0,0.3,0,0.5s0,0.4,0,0.6c-0.3,0-0.8,0.1-1.3,0.1c-0.5,0-1.1,0.1-1.7,0.1c-0.6,0-1.3,0.1-2.1,0.1
			c-0.7,0-1.5,0.1-2.3,0.1c0,0,0,0.1,0,0.2c0,0.1,0,0.1,0,0.2c0,0.7,0.1,1.2,0.3,1.6c0.2,0.4,0.6,0.7,1,0.9s1,0.3,1.7,0.3
			c0.4,0,0.9,0,1.3-0.1c0.5-0.1,0.9-0.1,1.4-0.2c0.5-0.1,0.9-0.2,1.3-0.3l0.3,2.1c-0.5,0.1-1,0.3-1.5,0.4c-0.5,0.1-1.1,0.2-1.6,0.2
			S330.8,303.1,330.1,303.1z M327.7,295.8c0.5,0,1,0,1.5,0c0.5,0,0.9,0,1.3-0.1s0.8,0,1.1-0.1s0.5,0,0.7-0.1c0-0.6-0.1-1.1-0.2-1.5
			c-0.2-0.4-0.4-0.7-0.7-0.8c-0.3-0.2-0.7-0.3-1.2-0.3c-0.3,0-0.6,0-0.8,0.1s-0.5,0.2-0.8,0.5c-0.2,0.2-0.4,0.5-0.6,0.9
			S327.7,295.3,327.7,295.8z"/>
		<path d="M342.8,300.9c1.2-1,2.1-1.8,2.9-2.5c0.8-0.7,1.5-1.3,2-1.9c0.5-0.5,0.9-1,1.2-1.4c0.3-0.4,0.5-0.8,0.6-1.2
			s0.2-0.7,0.2-1.1c0-0.5-0.1-0.9-0.3-1.3c-0.2-0.4-0.5-0.6-0.9-0.8s-0.9-0.3-1.4-0.3c-0.5,0-1.1,0.1-1.7,0.2
			c-0.6,0.2-1.2,0.4-1.8,0.8l-0.9-2.4c0.5-0.3,1-0.6,1.5-0.8c0.5-0.2,1.1-0.4,1.7-0.5s1.2-0.2,1.8-0.2c1.1,0,2,0.2,2.8,0.6
			s1.3,0.9,1.7,1.6c0.4,0.7,0.6,1.5,0.6,2.4c0,0.5,0,0.9-0.1,1.3c-0.1,0.4-0.2,0.8-0.5,1.3c-0.2,0.4-0.6,0.9-1,1.5
			c-0.4,0.5-1,1.2-1.7,1.9c-0.7,0.7-1.6,1.5-2.7,2.5h7.1v2.4h-11.2L342.8,300.9z"/>
	</g>
	<g id="eliminated2">
		<g>
			<path class="st8" d="M372.5,304.2l-142.2,23.3l-7.2-44l142.2-23.3L372.5,304.2z M233,323.7l135.8-22.2l-6.2-37.6l-135.7,22.2
				L233,323.7z"/>
		</g>
		<g>
			<path class="st8" d="M240.8,313l-3-17.4l10.7-1.8l0.6,3.6l-7.1,1.2l0.6,3.3l6.6-1.1l0.6,3.4l-6.6,1.1l0.6,3.6l7.5-1.3l0.6,3.6
				L240.8,313z"/>
			<path class="st8" d="M253.6,310.8l-3-17.4l3.6-0.6l2.4,13.7l6.7-1.2l0.6,3.7L253.6,310.8z"/>
			<path class="st8" d="M265.5,308.8l-3-17.4l3.6-0.6l3,17.4L265.5,308.8z"/>
			<path class="st8" d="M271.4,307.8l-3-17.4l3.8-0.6l5,7.6l2.2-8.8l3.6-0.6l3,17.4l-3.3,0.6l-1.9-11.2l-1.9,7.7l-1.7,0.3l-4.3-6.5
				l1.9,11.2L271.4,307.8z"/>
			<path class="st8" d="M288.3,304.9l-3-17.4l3.6-0.6l3,17.4L288.3,304.9z"/>
			<path class="st8" d="M294.3,303.8l-3-17.4l3.4-0.6l7.5,10l-1.9-10.9l3.2-0.6l3,17.4l-3.4,0.6l-7.5-9.7l1.8,10.7L294.3,303.8z"/>
			<path class="st8" d="M307.8,301.5l1.7-18.3l4.3-0.7l7.8,16.6l-4,0.7l-1.3-3.1l-4.6,0.8l-0.2,3.4L307.8,301.5z M311.9,293.9
				l3.2-0.6l-2.9-7.2L311.9,293.9z"/>
			<path class="st8" d="M330.7,283.5l-4.4,0.8l2.4,13.7l-3.6,0.6l-2.4-13.7l-4.4,0.8l-0.6-3.7l12.4-2.1L330.7,283.5z"/>
			<path class="st8" d="M334.5,296.9l-3-17.4l10.7-1.8l0.6,3.6l-7.1,1.2l0.6,3.3l6.6-1.1l0.6,3.4l-6.6,1.1l0.6,3.6l7.5-1.3l0.6,3.6
				L334.5,296.9z"/>
			<path class="st8" d="M353.1,294c-0.7,0.1-1.4,0.2-2.1,0.3c-0.7,0.1-1.3,0.2-1.9,0.2s-1.2,0.1-1.8,0.2l-3-17.4
				c0.7-0.2,1.3-0.3,1.9-0.5c0.6-0.1,1.2-0.3,1.8-0.4c0.6-0.1,1.2-0.2,1.9-0.4c1.7-0.3,3.2-0.2,4.4,0.2c1.2,0.4,2.1,1.3,2.9,2.5
				c0.7,1.2,1.3,2.9,1.6,5c0.4,2.1,0.4,3.8,0.1,5.2c-0.3,1.4-0.9,2.5-1.9,3.3C356,293.1,354.7,293.7,353.1,294z M352.8,290.6
				c0.7-0.1,1.2-0.4,1.6-0.9s0.6-1.1,0.7-2s0-2-0.2-3.3c-0.2-1.4-0.6-2.5-0.9-3.3c-0.4-0.8-0.8-1.3-1.4-1.6
				c-0.5-0.3-1.2-0.3-1.9-0.2c-0.3,0-0.5,0.1-0.8,0.1c-0.3,0.1-0.5,0.1-0.8,0.2s-0.5,0.1-0.7,0.2l1.9,11.1c0.2,0,0.4-0.1,0.6-0.1
				s0.4,0,0.6-0.1s0.4-0.1,0.6-0.1S352.6,290.6,352.8,290.6z"/>
		</g>
	</g>
</g>
</svg>
