<?xml version="1.0" encoding="utf-8"?>
<!-- Generator: Adobe Illustrator 26.3.1, SVG Export Plug-In . SVG Version: 6.00 Build 0)  -->
<svg version="1.1" id="Layer_1" xmlns="http://www.w3.org/2000/svg" xmlns:xlink="http://www.w3.org/1999/xlink" x="0px" y="0px"
	 viewBox="0 0 1777.5 735.9" style="enable-background:new 0 0 1777.5 735.9;" xml:space="preserve">
<style type="text/css">
	.st0{fill:none;stroke:#231F20;stroke-width:5;stroke-miterlimit:10;}
	.st1{fill:#231F20;}
	.st2{font-family:'OpenSans';}
	.st3{font-size:35px;}
	.st4{fill:none;stroke:#231F20;stroke-miterlimit:10;}
	.st5{fill:none;stroke:#231F20;stroke-miterlimit:10;stroke-dasharray:11.9424,11.9424;}
	.st6{fill:#EF8124;}
	.st7{fill:#FFDA6A;}
	.st8{fill:#E04C26;}
	.st9{fill:#F1C40F;}
	.st10{font-family:'OpenSans-SemiBold';}
	.st11{font-size:40.9883px;}
</style>
<g id="arrow">
	<path class="st0" d="M1300.5,200.6c0,0-94.5-119.4-241.6-14.1"/>
	<polyline class="st0" points="1074.9,200.6 1046.3,194 1052.7,166.3 	"/>
</g>
<text transform="matrix(1 0 0 1 1142.9359 69.9932)"><tspan x="0" y="0" class="st1 st2 st3">vote </tspan><tspan x="-25.2" y="40" class="st1 st2 st3">transfer</tspan></text>
<g id="cuttoff-50">
	<g>
		<g>
			<line class="st4" x1="0" y1="416.7" x2="6" y2="416.7"/>
			<line class="st5" x1="17.9" y1="416.7" x2="1755.6" y2="416.7"/>
			<line class="st4" x1="1761.5" y1="416.7" x2="1767.5" y2="416.7"/>
		</g>
	</g>
	<text transform="matrix(1 0 0 1 25.0002 469.2315)"><tspan x="0" y="0" class="st1 st2 st3">50%</tspan><tspan x="0" y="40" class="st1 st2 st3">CUT-OFF</tspan></text>
</g>
<g id="candidate-third">
	<g id="Bar_3">
		<rect x="1706.2" y="509.5" class="st6" width="30.3" height="226.3"/>
		<rect x="1706.2" y="416.7" class="st7" width="30.3" height="93.1"/>
		<rect x="1706.2" y="352.5" class="st8" width="30.3" height="65.1"/>
	</g>
	<g id="candidate-3">
		<path class="st9" d="M1421.7,224.2c0,0,2.2-2.2,6.1-3.1c3.9-0.8,8.9-3.9,14.2-4.2s-0.8-0.6,7.5,2.2c8.4,2.8,6.1-2.5,9.2-2.5
			s11.7-0.8,14.8,1.1s1.7,0.8,7.3,4.5c5.6,3.6,7.5,4.2,8.4,4.2s11.4,10.6,12.8,11.7c1.4,1.1,3.3,3.3,3.6,7
			c0.3,3.6,4.2,15.1,4.2,18.1c0,3.1,2.5,9.2,1.4,11.4c-1.1,2.2,6.7,3.9,7,7.8s1.7,8.7,0.3,12.6s-2.2,8.9-2.2,11.2c0,2.2-0.6,4.5,0,7
			s2,5.6,1.1,7.5c-0.8,2-5,4.5-7,3.3c-2-1.1-0.3,15.6-0.8,18.1c-0.6,2.5,2,0,4.7,2.8c2.8,2.8,7.3,9.2,7.8,15.6
			c0.6,6.4,6.1,12.8,7,12.8s1.7,5,1.7,5s-0.6-1.1,5.9,0.3c6.4,1.4,17.6,7.5,22.6,8.7s6.1,0,10,3.1c3.9,3.1,7.3,1.1,10.3,2
			c3.1,0.8,3.9,0.8,3.9,0.8l1.7,2c0,0,5.9,0.6,10.3,0.6c4.5,0,11.4,5,16.5,6.4c5,1.4,6.1,4.5,10.9,6.4c4.7,2,10.3,16.7,14.2,19.5
			c3.9,2.8,4.7,8.7,4.7,10.6c0,2-1.4,4.5-1.4,4.5s2.2,13.4,3.3,20.1c1.1,6.7,3.1,11.4,3.3,16.5c0.7,13.1,0.6,16.9,2,32.4
			c0.6,6.4,0.8-1.2,0.8,0.2c0,1.4-1.4,37.5-1.7,40s-1.7,20.4-3.3,23.2c-1.7,2.8-4.2,12.6-4.2,12.6s-6.4,16.2-8.1,18.4
			s-6.7,11.7-7,12.8c-0.3,1.1-0.6,4.2-4.7,5s-6.1,2.5-12,1.4c-5.9-1.1-10.3-4.5-10.3-4.5l-3.1,2.5c0,0-0.6,55.5,0,57.8
			c0.6,2.2,2.5,49.1,2.5,51.6c0,2.5-256.8,0.6-256.8,0.6s2.8-41.6,3.9-46c1.1-4.5,0.3-40.5,2.5-43.5s1.7-9.2,1.7-9.2s-6.1-1.7-7.3-2
			c-1.1-0.3-8.1,0.3-8.9,0.3c-0.8,0-4.5,0.6-6.1-2.5c-1.7-3.1-3.3-5-5.3-7.5c-2-2.5-9.8-8.1-10-14s-1.7-10.9-1.7-10.9
			s-2.2-8.1-2.5-11.2s-1.4-18.7-2.5-22.6c-1.1-3.9,0.3-64.7,1.7-72.3c1.4-7.5,4.5-14.5,4.5-16.7c0-2.2-1.4-8.1,0.8-12.8
			s4.5-9.5,4.7-13.4c0,0,2.2-8.7,4.7-12.3c2.5-3.6,2.5-4.7,4.2-6.4c1.7-1.7,3.6-3.3,5-7.5c1.4-4.2,1.7-5,3.1-5.9s6.4-2.5,9.5-5
			s7.3-9.5,12.6-8.4s10.3-1.7,10.3-1.7s5.9-0.3,6.7-0.6c0.8-0.3,5.9-4.2,8.7-5.3c2.8-1.1,8.7,0,9.8-0.6s4.2-4.2,9.2-7
			c5-2.8,10.6-5,10.6-5s4.7-15.1,5.9-17.6c1.1-2.5,1.1-2.5,1.1-2.5s-8.1-14.2-8.1-17c0-2.8-0.8-5.9-0.8-5.9s-6.7-0.3-7.8-7.5
			c-1.1-7.3-6.1-13.1-6.7-14.5c-0.6-1.4-3.3-2.8-2.8-8.7c0.6-5.9-0.6-11.2,0-12.8c0.6-1.7-0.6-10.3-3.1-22.9
			c-2.5-12.6,5.3-22.3,7-25.1c1.7-2.8,3.6-6.4,4.5-7.8c0.8-1.4,12.3-12.8,13.4-14C1414.7,226.4,1421.7,224.2,1421.7,224.2z"/>
		
			<image style="overflow:visible;" width="405" height="602" xlink:href="./cand-selection.png"  transform="matrix(0.8473 0 0 0.8473 1293.4971 223.8322)">
		</image>
	</g>
</g>
<g id="candidate-first">
	<g id="Bar_1">
		<rect x="576" y="370.2" class="st6" width="30.3" height="365.7"/>
		<rect x="576" y="220.2" class="st7" width="30.3" height="150.5"/>
		<rect x="576" y="116.4" class="st8" width="30.3" height="105.2"/>
	</g>
	<g id="cand1_00000011711539426293931580000002088214723144697476_">
		<path class="st9" d="M297.2,224.2c0,0,2.2-2.2,6.1-3.1c3.9-0.8,8.9-3.9,14.2-4.2c5.3-0.3-0.8-0.6,7.5,2.2c8.4,2.8,6.1-2.5,9.2-2.5
			c3.1,0,11.7-0.8,14.8,1.1s1.7,0.8,7.3,4.5c5.6,3.6,7.5,4.2,8.4,4.2c0.8,0,11.4,10.6,12.8,11.7c1.4,1.1,3.3,3.3,3.6,7
			c0.3,3.6,4.2,15.1,4.2,18.1c0,3.1,2.5,9.2,1.4,11.4c-1.1,2.2,6.7,3.9,7,7.8s1.7,8.7,0.3,12.6c-1.4,3.9-2.2,8.9-2.2,11.2
			c0,2.2-0.6,4.5,0,7s2,5.6,1.1,7.5c-0.8,2-5,4.5-7,3.3c-2-1.1-0.3,15.6-0.8,18.1c-0.6,2.5,2,0,4.7,2.8c2.8,2.8,7.3,9.2,7.8,15.6
			c0.6,6.4,6.1,12.8,7,12.8c0.8,0,1.7,5,1.7,5s-0.6-1.1,5.9,0.3c6.4,1.4,17.6,7.5,22.6,8.7s6.1,0,10,3.1s7.3,1.1,10.3,2
			c3.1,0.8,3.9,0.8,3.9,0.8l1.7,2c0,0,5.9,0.6,10.3,0.6s11.4,5,16.5,6.4c5,1.4,6.1,4.5,10.9,6.4c4.7,2,10.3,16.7,14.2,19.5
			c3.9,2.8,4.7,8.7,4.7,10.6c0,2-1.4,4.5-1.4,4.5s2.2,13.4,3.3,20.1c1.1,6.7,3.1,11.4,3.3,16.5c0.7,13.1,0.6,16.9,2,32.4
			c0.6,6.4,0.8-1.2,0.8,0.2c0,1.4-1.4,37.5-1.7,40c-0.3,2.5-1.7,20.4-3.3,23.2s-4.2,12.6-4.2,12.6s-6.4,16.2-8.1,18.4
			c-1.7,2.2-6.7,11.7-7,12.8c-0.3,1.1-0.6,4.2-4.7,5s-6.1,2.5-12,1.4c-5.9-1.1-10.3-4.5-10.3-4.5l-3.1,2.5c0,0-0.6,55.5,0,57.8
			s2.5,49.1,2.5,51.6c0,2.5-256.8,0.6-256.8,0.6s2.8-41.6,3.9-46c1.1-4.5,0.3-40.5,2.5-43.5s1.7-9.2,1.7-9.2s-6.1-1.7-7.3-2
			c-1.1-0.3-8.1,0.3-8.9,0.3c-0.8,0-4.5,0.6-6.1-2.5c-1.7-3.1-3.3-5-5.3-7.5s-9.8-8.1-10-14c-0.3-5.9-1.7-10.9-1.7-10.9
			s-2.2-8.1-2.5-11.2s-1.4-18.7-2.5-22.6c-1.1-3.9,0.3-64.7,1.7-72.3c1.4-7.5,4.5-14.5,4.5-16.7c0-2.2-1.4-8.1,0.8-12.8
			s4.5-9.5,4.7-13.4c0,0,2.2-8.7,4.7-12.3s2.5-4.7,4.2-6.4c1.7-1.7,3.6-3.3,5-7.5c1.4-4.2,1.7-5,3.1-5.9c1.4-0.8,6.4-2.5,9.5-5
			c3.1-2.5,7.3-9.5,12.6-8.4s10.3-1.7,10.3-1.7s5.9-0.3,6.7-0.6c0.8-0.3,5.9-4.2,8.7-5.3c2.8-1.1,8.7,0,9.8-0.6
			c1.1-0.6,4.2-4.2,9.2-7c5-2.8,10.6-5,10.6-5s4.7-15.1,5.9-17.6c1.1-2.5,1.1-2.5,1.1-2.5s-8.1-14.2-8.1-17c0-2.8-0.8-5.9-0.8-5.9
			s-6.7-0.3-7.8-7.5c-1.1-7.3-6.1-13.1-6.7-14.5c-0.6-1.4-3.3-2.8-2.8-8.7c0.6-5.9-0.6-11.2,0-12.8c0.6-1.7-0.6-10.3-3.1-22.9
			c-2.5-12.6,5.3-22.3,7-25.1c1.7-2.8,3.6-6.4,4.5-7.8c0.8-1.4,12.3-12.8,13.4-14C290.2,226.4,297.2,224.2,297.2,224.2z"/>
		
			<image style="overflow:visible;" width="405" height="602" xlink:href="./cand-selection.png"  transform="matrix(0.8473 0 0 0.8473 169.013 223.8322)">
		</image>
	</g>
</g>
<g id="candidate-sec">
	<g id="Bar_2">
		<rect x="1134.7" y="463.2" class="st6" width="30.3" height="272.7"/>
		<rect x="1134.7" y="351.4" class="st7" width="30.3" height="112.2"/>
		<rect x="1134.7" y="274" class="st8" width="30.3" height="78.5"/>
	</g>
	<g id="cand2">
		<path class="st9" d="M860.3,224.2c0,0,2.2-2.2,6.1-3.1c3.9-0.8,8.9-3.9,14.2-4.2s-0.8-0.6,7.5,2.2c8.4,2.8,6.1-2.5,9.2-2.5
			s11.7-0.8,14.8,1.1s1.7,0.8,7.3,4.5c5.6,3.6,7.5,4.2,8.4,4.2c0.8,0,11.4,10.6,12.8,11.7c1.4,1.1,3.3,3.3,3.6,7
			c0.3,3.6,4.2,15.1,4.2,18.1c0,3.1,2.5,9.2,1.4,11.4c-1.1,2.2,6.7,3.9,7,7.8c0.3,3.9,1.7,8.7,0.3,12.6s-2.2,8.9-2.2,11.2
			c0,2.2-0.6,4.5,0,7s2,5.6,1.1,7.5c-0.8,2-5,4.5-7,3.3c-2-1.1-0.3,15.6-0.8,18.1c-0.6,2.5,2,0,4.7,2.8c2.8,2.8,7.3,9.2,7.8,15.6
			c0.6,6.4,6.1,12.8,7,12.8c0.8,0,1.7,5,1.7,5s-0.6-1.1,5.9,0.3c6.4,1.4,17.6,7.5,22.6,8.7c5,1.1,6.1,0,10,3.1
			c3.9,3.1,7.3,1.1,10.3,2c3.1,0.8,3.9,0.8,3.9,0.8l1.7,2c0,0,5.9,0.6,10.3,0.6c4.5,0,11.4,5,16.5,6.4c5,1.4,6.1,4.5,10.9,6.4
			c4.7,2,10.3,16.7,14.2,19.5c3.9,2.8,4.7,8.7,4.7,10.6c0,2-1.4,4.5-1.4,4.5s2.2,13.4,3.3,20.1c1.1,6.7,3.1,11.4,3.3,16.5
			c0.7,13.1,0.6,16.9,2,32.4c0.6,6.4,0.8-1.2,0.8,0.2c0,1.4-1.4,37.5-1.7,40s-1.7,20.4-3.3,23.2c-1.7,2.8-4.2,12.6-4.2,12.6
			s-6.4,16.2-8.1,18.4c-1.7,2.2-6.7,11.7-7,12.8c-0.3,1.1-0.6,4.2-4.7,5s-6.1,2.5-12,1.4c-5.9-1.1-10.3-4.5-10.3-4.5l-3.1,2.5
			c0,0-0.6,55.5,0,57.8c0.6,2.2,2.5,49.1,2.5,51.6c0,2.5-256.8,0.6-256.8,0.6s2.8-41.6,3.9-46c1.1-4.5,0.3-40.5,2.5-43.5
			s1.7-9.2,1.7-9.2s-6.1-1.7-7.3-2c-1.1-0.3-8.1,0.3-8.9,0.3c-0.8,0-4.5,0.6-6.1-2.5s-3.3-5-5.3-7.5c-2-2.5-9.8-8.1-10-14
			c-0.3-5.9-1.7-10.9-1.7-10.9s-2.2-8.1-2.5-11.2c-0.3-3.1-1.4-18.7-2.5-22.6c-1.1-3.9,0.3-64.7,1.7-72.3c1.4-7.5,4.5-14.5,4.5-16.7
			c0-2.2-1.4-8.1,0.8-12.8s4.5-9.5,4.7-13.4c0,0,2.2-8.7,4.7-12.3s2.5-4.7,4.2-6.4c1.7-1.7,3.6-3.3,5-7.5c1.4-4.2,1.7-5,3.1-5.9
			c1.4-0.8,6.4-2.5,9.5-5s7.3-9.5,12.6-8.4s10.3-1.7,10.3-1.7s5.9-0.3,6.7-0.6c0.8-0.3,5.9-4.2,8.7-5.3c2.8-1.1,8.7,0,9.8-0.6
			s4.2-4.2,9.2-7c5-2.8,10.6-5,10.6-5s4.7-15.1,5.9-17.6c1.1-2.5,1.1-2.5,1.1-2.5s-8.1-14.2-8.1-17c0-2.8-0.8-5.9-0.8-5.9
			s-6.7-0.3-7.8-7.5c-1.1-7.3-6.1-13.1-6.7-14.5c-0.6-1.4-3.3-2.8-2.8-8.7c0.6-5.9-0.6-11.2,0-12.8c0.6-1.7-0.6-10.3-3.1-22.9
			c-2.5-12.6,5.3-22.3,7-25.1c1.7-2.8,3.6-6.4,4.5-7.8c0.8-1.4,12.3-12.8,13.4-14C853.4,226.4,860.3,224.2,860.3,224.2z"/>
		
			<image style="overflow:visible;" width="405" height="602" xlink:href="./cand-selection.png"  transform="matrix(0.8473 0 0 0.8473 732.1722 223.8322)">
		</image>
	</g>
</g>
<g id="eliminated">
	<path class="st9" d="M1618.4,639.7h-285.8c-28.5,0-51.7-23.1-51.7-51.7v0c0-28.5,23.1-51.7,51.7-51.7h285.8
		c28.5,0,51.7,23.1,51.7,51.7v0C1670.1,616.6,1646.9,639.7,1618.4,639.7z"/>
	<text transform="matrix(1.0438 0 0 1 1373.2341 601.4385)" class="st1 st10 st11">Eliminated</text>
</g>
</svg>
